<?xml version="1.0" encoding="UTF-8"?>
<svg width="63px" height="54px" viewBox="0 0 63 54" version="1.1" xmlns="http://www.w3.org/2000/svg" xmlns:xlink="http://www.w3.org/1999/xlink">
    <!-- Generator: Sketch 57.1 (83088) - https://sketch.com -->
    <title>drive-eta</title>
    <desc>Created with Sketch.</desc>
    <defs>
        <linearGradient x1="50%" y1="56.9384004%" x2="9.51344937%" y2="38.1827731%" id="linearGradient-1">
            <stop stop-color="#13C2C2" offset="0%"></stop>
            <stop stop-color="#FF7E00" offset="100%"></stop>
        </linearGradient>
    </defs>
    <g id="Page-1" stroke="none" stroke-width="1" fill="none" fill-rule="evenodd">
        <g id="Artboard" transform="translate(-891.000000, -2658.000000)">
            <g id="Group-19" transform="translate(829.000000, 2590.000000)">
                <g id="drive-eta" transform="translate(61.000000, 67.000000)">
                    <rect id="Rectangle" x="0" y="0" width="65" height="56"></rect>
                    <path d="M56.65,4.375 C55.95,2.35 53.85,1 51.75,1 L13.25,1 C10.8,1 9.05,2.35 8.35,4.375 L1,24.625 L1,51.625 C1,53.65 2.4,55 4.5,55 L8,55 C10.1,55 11.5,53.65 11.5,51.625 L11.5,48.25 L53.5,48.25 L53.5,51.625 C53.5,53.65 54.9,55 57,55 L60.5,55 C62.6,55 64,53.65 64,51.625 L64,24.625 L56.65,4.375 L56.65,4.375 Z M13.3607595,38.3235294 C10.5962025,38.3235294 8.17721519,35.9147059 8.17721519,33.1617647 C8.17721519,30.4088235 10.5962025,28 13.3607595,28 C16.1253165,28 18.5443038,30.4088235 18.5443038,33.1617647 C18.5443038,35.9147059 16.1253165,38.3235294 13.3607595,38.3235294 L13.3607595,38.3235294 Z M51.6392405,38.3235294 C48.8746835,38.3235294 46.4556962,35.9147059 46.4556962,33.1617647 C46.4556962,30.4088235 48.8746835,28 51.6392405,28 C54.4037975,28 56.8227848,30.4088235 56.8227848,33.1617647 C56.8227848,35.9147059 54.4037975,38.3235294 51.6392405,38.3235294 L51.6392405,38.3235294 Z M8.17721519,20.8529412 L13.3892405,5.76470588 L51.6107595,5.76470588 L56.8227848,20.8529412 L8.17721519,20.8529412 L8.17721519,20.8529412 Z" id="Shape" fill="url(#linearGradient-1)"></path>
                </g>
            </g>
        </g>
    </g>
</svg>