<?xml version="1.0" encoding="UTF-8"?>
<svg width="153px" height="39px" viewBox="0 0 153 39" version="1.1" xmlns="http://www.w3.org/2000/svg" xmlns:xlink="http://www.w3.org/1999/xlink">
    <!-- Generator: Sketch 57.1 (83088) - https://sketch.com -->
    <title>Group 50</title>
    <desc>Created with Sketch.</desc>
    <defs>
        <path d="M8.15832,0.03564 C3.655152,0.03564 0.004536,3.68604 0.004536,8.189208 L0.004536,8.189208 L0.004536,29.513808 C0.004536,34.016976 3.655152,37.667592 8.15832,37.667592 L8.15832,37.667592 L29.48292,37.667592 C33.986088,37.667592 37.636488,34.016976 37.636488,29.513808 L37.636488,29.513808 L37.636488,8.189208 C37.636488,3.68604 33.986088,0.03564 29.48292,0.03564 L29.48292,0.03564 L8.15832,0.03564 Z" id="path-1"></path>
        <path d="M3.738744,0.136512 C3.329856,0.141696 3.0024,0.477576 3.007584,0.88668 L3.007584,0.88668 L3.04452,3.76704 C3.047544,4.010688 2.930256,4.240512 2.731536,4.381344 L2.731536,4.381344 L0.379512,6.044328 C0.246672,6.138504 0.148392,6.273504 0.099792,6.42924 L0.099792,6.42924 C-0.021384,6.819768 0.196776,7.23492 0.587304,7.356096 L0.587304,7.356096 L3.33828,8.21124 C3.571128,8.283816 3.753,8.465904 3.825576,8.698752 L3.825576,8.698752 L4.68072,11.449728 C4.728888,11.605032 4.827168,11.740248 4.960008,11.834424 L4.960008,11.834424 C5.29416,12.070728 5.7564,11.99124 5.992488,11.65752 L5.992488,11.65752 L7.655688,9.305496 C7.79652,9.10656 8.026128,8.989272 8.269992,8.992728 L8.269992,8.992728 L11.150352,9.029448 C11.313,9.031608 11.472192,8.979768 11.602656,8.882352 L11.602656,8.882352 C11.930544,8.637624 11.997936,8.173656 11.753424,7.845768 L11.753424,7.845768 L10.030392,5.537376 C9.884592,5.341896 9.844416,5.087232 9.922824,4.856328 L9.922824,4.856328 L10.847952,2.128464 C10.900008,1.974024 10.900008,1.80684 10.847952,1.652616 L10.847952,1.652616 C10.716408,1.265328 10.296072,1.057752 9.908568,1.189296 L9.908568,1.189296 L7.180488,2.114208 C6.9498,2.192616 6.69492,2.152224 6.499656,2.006424 L6.499656,2.006424 L4.191264,0.283608 C4.063176,0.188136 3.907872,0.136512 3.748464,0.136512 L3.748464,0.136512 C3.745224,0.136512 3.741768,0.136512 3.738744,0.136512 L3.738744,0.136512 Z" id="path-3"></path>
        <path d="M14.668128,0.093744 C14.55516,0.097632 14.442624,0.109296 14.331384,0.13176 L14.331384,0.13176 C12.271392,0.385128 10.194336,0.951264 8.289216,1.79388 L8.289216,1.79388 L8.239104,1.816128 C8.209296,1.828872 8.168904,1.845504 8.119224,1.86624 L8.119224,1.86624 C7.266456,2.221128 4.671864,3.301344 2.537784,5.435424 L2.537784,5.435424 C1.073952,6.89904 0.179496,8.95104 0.083592,11.065032 L0.083592,11.065032 C-0.023112,13.423104 0.848448,15.652008 2.537784,17.341128 L2.537784,17.341128 L6.790176,21.593952 L11.042784,25.846344 C12.73212,27.53568 14.961024,28.40724 17.319096,28.30032 L17.319096,28.30032 C19.433088,28.204632 21.484872,27.310176 22.948704,25.846344 L22.948704,25.846344 C25.082784,23.712264 26.163,21.117672 26.517672,20.264904 L26.517672,20.264904 C26.538408,20.215224 26.55504,20.175048 26.568,20.14524 L26.568,20.14524 L26.590248,20.094912 C27.489024,18.062352 28.07352,15.834312 28.298808,13.640184 L28.298808,13.640184 L28.285848,13.640184 C28.286064,13.118544 28.087128,12.597336 27.689256,12.199464 L27.689256,12.199464 C26.893944,11.403936 25.604424,11.403936 24.808896,12.199464 L24.808896,12.199464 C24.41124,12.597336 24.212304,13.118544 24.21252,13.640184 L24.21252,13.640184 L24.207552,13.640184 C23.893272,16.08228 23.077656,17.84484 22.934232,18.173376 L22.934232,18.173376 C22.751496,18.5922 21.951864,20.732112 20.294064,22.389912 L20.294064,22.389912 C18.636264,24.047712 15.54552,24.498288 13.43736,22.389912 L13.43736,22.389912 C11.3292,20.281968 9.715464,18.668448 9.715464,18.668448 L9.715464,18.668448 L5.994216,14.946768 C3.88584,12.838608 4.3362,9.747648 5.994216,8.090064 L5.994216,8.090064 C7.652016,6.432264 9.791928,5.632632 10.210752,5.449896 L10.210752,5.449896 C10.539288,5.306256 12.302064,4.49064 14.743944,4.176576 L14.743944,4.176576 L14.743944,4.163616 C15.262776,4.161672 15.78096,3.963384 16.176888,3.567456 L16.176888,3.567456 C16.9722,2.772144 16.9722,1.482408 16.176888,0.68688 L16.176888,0.68688 C15.78096,0.291168 15.262776,0.092664 14.743944,0.09072 L14.743944,0.09072 L14.743944,0.08532 C14.718672,0.087696 14.693184,0.090936 14.668128,0.093744 L14.668128,0.093744 Z" id="path-5"></path>
    </defs>
    <g id="Symbols" stroke="none" stroke-width="1" fill="none" fill-rule="evenodd">
        <g id="点评nav" transform="translate(-180.000000, -17.000000)">
            <g id="Group-4">
                <g id="Group-50" transform="translate(180.000000, 17.000000)">
                    <g id="Group-40" transform="translate(45.360000, 0.164160)" fill="#FEFEFE">
                        <path d="M6.099516,23.0564016 C5.232708,23.0564016 4.528548,22.3522416 4.528548,21.4854336 L4.528548,6.8322096 L1.523556,6.8322096 L1.523556,21.4854336 C1.523556,23.3542656 3.067308,24.8982336 4.936356,24.8982336 L8.746596,24.8982336 L8.746596,23.0564016 L6.099516,23.0564016 Z" id="Fill-1"></path>
                        <path d="M19.311696,15.2479152 L14.225328,8.6739552 L21.261312,8.6739552 C21.637152,8.6739552 21.908448,9.0346752 21.804984,9.3958272 C21.195864,11.5240752 20.342664,13.4572752 19.311696,15.2479152 L19.311696,15.2479152 Z M21.159144,17.6392512 C22.771368,15.1643232 24.078816,12.3088032 24.93828,8.8810992 C25.199424,7.8399792 24.402816,6.8321232 23.329512,6.8321232 L23.01264,6.8321232 L13.331304,6.8321232 L13.439736,4.0964832 C13.520952,3.2296752 14.198112,2.4985152 15.010704,2.4985152 L23.854608,2.4985152 L24.832656,2.4985152 L24.832656,0.6566832 L23.854608,0.6566832 L15.010704,0.6566832 L13.847544,0.6566832 C11.978496,0.6566832 10.54296,2.1734352 10.434744,4.0422672 L9.703368,24.8847552 L12.70836,24.9117552 L12.744864,24.0458112 L12.772944,23.2377552 L13.172976,11.7627552 L17.747856,17.6664672 C16.265232,19.7268912 14.695776,21.5756352 13.078584,23.1774912 L14.227488,24.3931392 L14.76684,24.9795792 C16.439112,23.4269712 18.047232,21.8104272 19.500048,19.9640592 L23.408784,24.9795792 L24.134544,24.4181952 L24.229152,24.3482112 L25.664688,23.2377552 L21.159144,17.6392512 Z" id="Fill-3"></path>
                        <path d="M45.564444,6.371676 L45.564444,4.015116 L42.559236,4.015116 L42.559236,6.371676 L32.358852,6.371676 L32.358852,8.213508 L35.869068,8.213508 C35.489988,13.359924 34.669188,16.482204 32.447844,19.65114 L34.7571,21.214548 C37.222092,17.747532 38.46798,13.79322 38.901276,8.213508 L42.559236,8.213508 L42.559236,18.424692 C42.559236,19.020636 42.09894,19.481148 41.502996,19.481148 L40.174164,19.481148 L39.011004,19.481148 L39.011004,21.32298 L40.174164,21.32298 L41.502996,21.32298 L42.666372,21.32298 C44.264124,21.32298 45.564444,20.022876 45.564444,18.424692 L45.564444,8.213508 L46.909044,8.213508 L48.072204,8.213508 L48.072204,6.371676 L45.564444,6.371676 Z" id="Fill-5"></path>
                        <path d="M32.5633176,23.164812 C31.6965096,23.164812 30.9923496,22.460652 30.9923496,21.593844 L30.9923496,3.9069 C30.9923496,3.040092 31.6965096,2.335932 32.5633176,2.335932 L47.6513496,2.335932 C48.5183736,2.335932 49.2223176,3.040092 49.2223176,3.9069 L49.2223176,21.593844 C49.2223176,22.460652 48.5183736,23.164812 47.6513496,23.164812 L32.5633176,23.164812 Z M48.8145096,0.4941 L47.6513496,0.4941 L32.5633176,0.4941 L31.3999416,0.4941 C29.5311096,0.4941 27.9871416,2.037852 27.9871416,3.9069 L27.9871416,21.593844 C27.9871416,23.462676 29.5311096,25.006644 31.3999416,25.006644 L32.5633176,25.006644 L47.6513496,25.006644 L48.8145096,25.006644 C50.6835576,25.006644 52.2275256,23.462676 52.2275256,21.593844 L52.2275256,3.9069 C52.2275256,2.037852 50.6835576,0.4941 48.8145096,0.4941 L48.8145096,0.4941 Z" id="Fill-7"></path>
                        <path d="M74.7578808,9.5948928 C75.3538248,9.5948928 75.8143368,10.0551888 75.8143368,10.6511328 L75.8143368,14.4432288 C75.8143368,15.0391728 75.3538248,15.5266848 74.7578808,15.5266848 L60.0636168,15.5266848 C59.4676728,15.5266848 58.9801608,15.0391728 58.9801608,14.4432288 L58.9801608,10.6511328 C58.9801608,10.0551888 59.4676728,9.5948928 60.0636168,9.5948928 L74.7578808,9.5948928 Z M65.8513368,0.2116368 L62.8461288,0.2116368 L62.8461288,7.7143968 L60.0636168,7.7260608 L58.2150888,7.7260608 C56.9830248,7.7260608 55.9751688,8.7339168 55.9751688,9.9659808 L55.9751688,15.1285968 C55.9751688,16.3604448 56.9830248,17.3685168 58.2150888,17.3685168 L60.0636168,17.3685168 L74.7578808,17.3685168 L76.6066248,17.3685168 C77.8287528,17.3685168 78.8195448,16.3777248 78.8195448,15.1555968 L78.8195448,9.9657648 C78.8195448,8.7339168 77.8114728,7.7260608 76.5796248,7.7260608 L74.7578808,7.7260608 L65.8513368,7.7143968 L65.8513368,0.2116368 Z" id="Fill-9"></path>
                        <polygon id="Fill-11" points="56.3985072 19.1503656 54.7368192 25.0009416 57.7420272 25.0009416 59.4037152 19.1503656"></polygon>
                        <polygon id="Fill-13" points="64.5147504 19.1503656 66.1764384 25.0009416 63.1714464 25.0009416 61.5097584 19.1503656"></polygon>
                        <polygon id="Fill-15" points="71.2877544 19.1503656 72.9494424 25.0009416 69.9442344 25.0009416 68.2825464 19.1503656"></polygon>
                        <polygon id="Fill-17" points="78.0605424 19.1503656 79.7222304 25.0009416 76.7172384 25.0009416 75.0555504 19.1503656"></polygon>
                        <polygon id="Fill-19" points="107.077939 17.3684736 107.077939 15.5266416 99.7648272 15.5266416 99.7648272 2.5526016 106.752859 2.5526016 106.752859 0.6835536 89.7988032 0.6835536 89.7988032 2.5526016 96.7598352 2.5526016 96.7598352 15.5266416 89.4737232 15.5266416 89.4737232 17.3684736 96.7598352 17.3684736 96.7598352 25.0336656 99.7648272 25.0336656 99.7648272 17.3684736"></polygon>
                        <path d="M88.4970792,23.19192 C87.9011352,23.19192 87.4408392,22.731408 87.4408392,22.135464 L87.4408392,10.6434 C87.4408392,9.045432 86.1135192,7.718112 84.5155512,7.718112 L83.3523912,7.718112 L82.6197192,7.718112 L81.4563432,7.718112 L81.4563432,9.58716 L82.6197192,9.58716 L83.3523912,9.58716 C83.9481192,9.58716 84.4356312,10.047672 84.4356312,10.6434 L84.4356312,22.135464 C84.4356312,23.733648 85.7359512,25.033752 87.3339192,25.033752 L88.4970792,25.033752 L88.8778872,25.033752 L90.0410472,25.033752 L90.0410472,23.19192 L88.8778872,23.19192 L88.4970792,23.19192 Z" id="Fill-21"></path>
                        <path d="M4.0262184,3.338064 L8.5233384,3.338064 C9.1045944,3.338064 9.5242824,3.894696 9.3640104,4.453488 L8.1397224,8.728128 L5.0336424,8.728128 L5.1889464,8.240616 L5.9205384,5.735664 C6.0015384,5.457672 5.7930984,5.179896 5.5036584,5.179896 L1.0037304,5.179896 C0.4216104,5.179896 0.0019224,4.621536 0.1634904,4.062312 L1.1948904,0.493992 L4.2960024,0.510408 L3.6106344,2.778192 C3.5263944,3.057048 3.7350504,3.338064 4.0262184,3.338064" id="Fill-23"></path>
                        <polygon id="Fill-25" points="92.8130832 5.0461488 89.7970752 5.0461488 91.3127472 13.2392448 94.3516512 13.2392448"></polygon>
                        <polygon id="Fill-27" points="103.73184 5.0461488 106.747848 5.0461488 105.232176 13.2392448 102.193272 13.2392448"></polygon>
                        <polygon id="Fill-29" points="86.1162408 0.68364 87.6472488 6.073704 84.8787768 6.073704 83.3477688 0.68364"></polygon>
                        <polygon id="Fill-31" points="65.708928 4.015224 78.81948 4.015224 78.81948 2.173392 65.708928 2.173392"></polygon>
                        <polygon id="Fill-33" points="2.4488352 37.9287576 1.1698992 37.9287576 1.1698992 30.0402216 5.6216592 30.0402216 5.6216592 31.1299416 2.4488352 31.1299416 2.4488352 33.5957976 5.4218592 33.5957976 5.4218592 34.6911336 2.4488352 34.6911336"></polygon>
                        <path d="M19.959912,34.62642 L19.22076,32.478948 C19.16676,32.335092 19.092024,32.108508 18.996768,31.79898 C18.901512,31.489884 18.835848,31.2633 18.799776,31.119228 C18.702792,31.561596 18.560448,32.045436 18.373392,32.570748 L17.66124,34.62642 L19.959912,34.62642 Z M21.087648,37.928844 L20.299896,35.737956 L17.283672,35.737956 L16.511904,37.928844 L15.152184,37.928844 L18.103824,30.007692 L19.506744,30.007692 L22.458168,37.928844 L21.087648,37.928844 Z" id="Fill-34"></path>
                        <path d="M39.2139576,37.9287576 L37.6330536,37.9287576 L33.7532616,31.6425096 L33.7102776,31.6425096 L33.7370616,31.9932936 C33.7873896,32.6624616 33.8126616,33.2739576 33.8126616,33.8279976 L33.8126616,37.9287576 L32.6417256,37.9287576 L32.6417256,30.0402216 L34.2066456,30.0402216 L38.0754216,36.2938536 L38.1078216,36.2938536 C38.1004776,36.2111256 38.0862216,35.9100216 38.0646216,35.3901096 C38.0430216,34.8701976 38.0322216,34.4645496 38.0322216,34.1731656 L38.0322216,30.0402216 L39.2139576,30.0402216 L39.2139576,37.9287576 Z" id="Fill-35"></path>
                        <polygon id="Fill-36" points="53.1639936 37.9287576 51.8742576 37.9287576 51.8742576 31.1461416 49.5539856 31.1461416 49.5539856 30.0402216 55.4840496 30.0402216 55.4840496 31.1461416 53.1639936 31.1461416"></polygon>
                        <path d="M72.0186552,30.0401136 L72.0186552,35.1444096 C72.0186552,35.7271776 71.8935912,36.2371536 71.6436792,36.6743376 C71.3933352,37.1113056 71.0319672,37.4476176 70.5589272,37.6832736 C70.0861032,37.9189296 69.5203992,38.0366496 68.8620312,38.0366496 C67.8833352,38.0366496 67.1227992,37.7776656 66.5795592,37.2596976 C66.0363192,36.7415136 65.7648072,36.0293616 65.7648072,35.1228096 L65.7648072,30.0401136 L67.0597272,30.0401136 L67.0597272,35.0312256 C67.0597272,35.6822496 67.2107112,36.1626336 67.5131112,36.4719456 C67.8150792,36.7812576 68.2792632,36.9359136 68.9050152,36.9359136 C70.1210952,36.9359136 70.7289192,36.2974176 70.7289192,35.0204256 L70.7289192,30.0401136 L72.0186552,30.0401136 Z" id="Fill-37"></path>
                        <path d="M86.9452272,34.62642 L86.2058592,32.478948 C86.1518592,32.335092 86.0771232,32.108508 85.9820832,31.79898 C85.8868272,31.489884 85.8209472,31.2633 85.7850912,31.119228 C85.6878912,31.561596 85.5457632,32.045436 85.3587072,32.570748 L84.6463392,34.62642 L86.9452272,34.62642 Z M88.0729632,37.928844 L87.2849952,35.737956 L84.2687712,35.737956 L83.4972192,37.928844 L82.1374992,37.928844 L85.0889232,30.007692 L86.4918432,30.007692 L89.4432672,37.928844 L88.0729632,37.928844 Z" id="Fill-38"></path>
                        <path d="M106.199381,37.9287576 L104.618477,37.9287576 L100.738901,31.6425096 L100.695701,31.6425096 L100.722701,31.9932936 C100.772813,32.6624616 100.797869,33.2739576 100.797869,33.8279976 L100.797869,37.9287576 L99.6271488,37.9287576 L99.6271488,30.0402216 L101.191853,30.0402216 L105.060845,36.2938536 L105.093245,36.2938536 C105.085901,36.2111256 105.071429,35.9100216 105.050045,35.3901096 C105.028229,34.8701976 105.017645,34.4645496 105.017645,34.1731656 L105.017645,30.0402216 L106.199381,30.0402216 L106.199381,37.9287576 Z" id="Fill-39"></path>
                    </g>
                    <g id="Group-43" transform="translate(0.216000, 0.812160)">
                        <mask id="mask-2" fill="white">
                            <use xlink:href="#path-1"></use>
                        </mask>
                        <g id="Clip-42"></g>
                        <polygon id="Fill-41" fill="#EE4155" mask="url(#mask-2)" points="-3.131352 40.80348 40.772592 40.80348 40.772592 -3.100464 -3.131352 -3.100464"></polygon>
                    </g>
                    <g id="Group-46" transform="translate(20.304000, 6.428160)">
                        <mask id="mask-4" fill="white">
                            <use xlink:href="#path-3"></use>
                        </mask>
                        <g id="Clip-45"></g>
                        <polygon id="Fill-44" fill="#FEFEFE" mask="url(#mask-4)" points="-5.839128 17.87616 19.083168 17.87616 19.083168 -7.046136 -5.839128 -7.046136"></polygon>
                    </g>
                    <g id="Group-49" transform="translate(4.536000, 5.780160)">
                        <mask id="mask-6" fill="white">
                            <use xlink:href="#path-5"></use>
                        </mask>
                        <g id="Clip-48"></g>
                        <polygon id="Fill-47" fill="#FEFEFE" mask="url(#mask-6)" points="-3.061152 31.445064 31.434696 31.445064 31.434696 -3.050784 -3.061152 -3.050784"></polygon>
                    </g>
                </g>
            </g>
        </g>
    </g>
</svg>