<?xml version="1.0" encoding="UTF-8"?>
<svg width="95px" height="162px" viewBox="0 0 95 162" version="1.1" xmlns="http://www.w3.org/2000/svg" xmlns:xlink="http://www.w3.org/1999/xlink">
    <!-- Generator: Sketch 57.1 (83088) - https://sketch.com -->
    <title>Alberta</title>
    <desc>Created with Sketch.</desc>
    <defs>
        <polygon id="path-1" points="0 0 94 0 94 325 0 325"></polygon>
    </defs>
    <g id="Page-2" stroke="none" stroke-width="1" fill="none" fill-rule="evenodd">
        <g id="Artboard-Copy-3" transform="translate(-336.000000, -2694.000000)">
            <g id="Group-8" transform="translate(230.000000, 2357.000000)">
                <g id="Group-11" transform="translate(0.000000, 274.000000)">
                    <g id="编组">
                        <g id="Alberta" transform="translate(106.349354, 1.174877)">
                            <mask id="mask-2" fill="white">
                                <use xlink:href="#path-1"></use>
                            </mask>
                            <g id="Clip-26"></g>
                            <path d="M69.47915,223.125123 L92.260131,94.3338671 C90.9342932,95.0654664 89.8408954,95.9348223 89.1547324,96.6180206 C88.2881961,97.4873764 87.8307541,98.766279 86.6890088,98.950575 C85.5491229,99.1330094 87.1464507,98.1742979 85.2292855,97.9453241 C83.3121202,97.6698109 82.1238869,98.766279 81.8040494,97.1671854 C81.4395835,95.5680919 81.2573505,94.0136761 82.0327704,93.8759195 C82.8100498,93.7847023 83.4032367,94.1961105 83.4032367,94.1961105 C85.0470525,95.0654664 86.0047054,95.2497624 87.0088462,94.3338671 C87.9683586,93.4198335 86.7801252,91.4540095 89.0189875,91.2734366 C91.2095022,91.13568 90.0231283,91.0444628 91.4847112,90.4040808 C92.167155,90.1304291 92.671085,89.7171593 93.1266674,89.3057511 L94.4506457,81.7645078 C90.5233393,80.9435529 86.5532638,79.9829798 82.5348408,78.9758674 C63.3167004,74.1339089 45.4653072,68.5584896 28.9378924,62.5251226 C25.9719578,70.7979652 0.769881592,141.455934 -0.00553829831,145.065529 C-0.370004242,146.757701 -0.00553829831,148.036604 0.680624626,149.088394 C1.45604452,150.183001 2.59778987,151.050495 3.78416371,151.828634 C6.1122829,153.338372 5.97467841,155.620663 5.83893344,158.364626 C5.79244544,159.005008 5.79244544,159.690068 5.79244544,160.419806 C5.79244544,163.027873 7.6649822,163.940045 9.62863545,164.854079 C9.85735642,164.945296 10.0842179,165.083053 10.4951718,165.267349 C12.2301041,166.134843 13.052012,168.098806 13.9650364,170.429498 C14.5582233,171.846157 15.1978982,173.445251 16.1555511,174.954989 C16.7505975,175.869023 17.2526679,176.6453 17.7547384,177.421577 C19.7630201,180.392652 21.4979524,183.043536 21.8624183,185.283011 C22.0911393,186.74621 22.5020932,188.665494 23.1417682,190.540101 C23.6438386,192.049839 24.281654,193.511176 25.0589334,194.790078 C25.1500499,195.017191 25.3322829,195.292704 25.5145158,195.612895 C27.2048196,198.310318 28.4823099,200.412037 29.0754969,206.171752 C29.4864508,210.237434 29.2595894,210.786599 28.6645429,212.432232 C28.4376815,213.026074 27.9802395,214.122542 27.5692856,215.492662 C40.7179523,218.234763 54.87076,220.932186 69.47915,223.125123" id="Fill-23" fill="#EBEBEB" mask="url(#mask-2)"></path>
                        </g>
                    </g>
                </g>
            </g>
        </g>
    </g>
</svg>