<?xml version="1.0" encoding="UTF-8"?>
<svg width="130px" height="213px" viewBox="0 0 130 213" version="1.1" xmlns="http://www.w3.org/2000/svg" xmlns:xlink="http://www.w3.org/1999/xlink">
    <!-- Generator: Sketch 57.1 (83088) - https://sketch.com -->
    <title>bc</title>
    <desc>Created with Sketch.</desc>
    <defs>
        <polygon id="path-1" points="0.349354254 0.0748773934 134.349354 0.0748773934 134.349354 325.074877 0.349354254 325.074877"></polygon>
    </defs>
    <g id="Page-2" stroke="none" stroke-width="1" fill="none" fill-rule="evenodd">
        <g id="Artboard-Copy-3" transform="translate(-234.000000, -2634.000000)">
            <g id="Group-8" transform="translate(230.000000, 2357.000000)">
                <g id="Group-11" transform="translate(0.000000, 274.000000)">
                    <g id="编组">
                        <g id="bc" transform="translate(0.000000, 1.100000)">
                            <mask id="mask-2" fill="white">
                                <use xlink:href="#path-1"></use>
                            </mask>
                            <g id="Clip-26"></g>
                            <path d="M38.3171663,197.582414 C38.3171663,197.582414 45.0782744,205.717918 47.1015486,206.034453 C49.0798612,206.306562 50.4586851,206.034453 50.7809102,204.807186 C51.2867288,203.579918 52.2534042,198.80783 52.3452009,197.354731 C52.4369976,195.944207 52.3452009,196.671682 50.5973168,194.446682 C48.8044711,192.173554 49.9528665,191.264673 48.068224,189.128524 C46.2285432,186.992376 43.0081651,187.220059 42.7777366,183.630812 C42.5941432,180.08414 42.2719181,179.084556 42.5941432,177.129813 C42.8714067,175.221348 43.0999618,173.35916 42.3655882,171.450695 C41.6293412,169.495953 42.4573849,169.723636 39.9732537,168.496369 C37.4891226,167.269102 35.8330352,165.042251 31.6928166,161.769538 C27.5095098,158.543103 27.4177131,158.952192 26.8182245,157.40839 C26.1756475,155.907163 24.5195601,152.954688 22.3576541,153.635886 C20.1489131,154.363361 18.4029024,153.635886 19.8285614,156.316252 C21.299182,158.952192 23.0470661,160.272013 23.8751098,159.861073 C24.7031535,159.451984 24.2891317,161.08834 23.2774946,161.271597 C22.2190224,161.497429 20.6566051,162.589567 21.2073853,163.405894 C21.7132038,164.224072 24.7031535,164.451756 24.8417853,165.769726 C24.933582,167.085845 24.6113568,166.76931 24.7031535,168.08728 C24.8417853,169.403399 24.6113568,168.814755 26.2674442,170.040171 C27.9235317,171.223012 28.1520867,170.72322 27.9235317,172.039339 C27.7399383,173.35916 24.6113568,172.676111 25.8534224,174.493873 C27.095488,176.313486 27.9235317,174.812259 27.9235317,176.541169 C27.9235317,178.268229 28.8883337,178.949427 31.1420364,181.085575 C33.4425741,183.221723 35.0049915,183.540109 33.348904,184.267584 C31.6928166,184.948782 30.5444212,187.492168 32.1087119,188.038237 C33.6711292,188.538029 33.9465193,188.12894 35.6044801,188.719435 C37.3055292,189.358058 38.1335729,188.811989 37.3973259,190.174385 C36.6610789,191.490504 35.7412385,190.355791 35.0049915,192.173554 C34.2706179,194.035742 34.9131948,197.173325 35.6044801,197.264028 C36.3388537,197.354731 38.3171663,197.582414 38.3171663,197.582414 M8.65184466,91.9208251 C8.65184466,91.9208251 8.1460261,92.1040822 5.84548837,95.9654384 C3.59178569,99.8286457 4.74205456,100.826379 4.83385126,103.099507 C4.92564796,105.326358 3.91401085,106.235239 4.00580755,107.553209 C4.09760425,108.871179 5.15607641,108.46209 5.33966981,109.78006 C5.57009827,111.098031 4.5116261,111.6441 4.6034228,112.55113 C4.74205456,113.461862 6.48993868,113.961654 6.58173538,114.961238 C6.71849373,116.007099 5.01744466,117.913713 5.43146652,118.733742 C5.84548837,119.55192 6.99575724,121.095722 6.81216384,121.688068 C6.58173538,122.276712 4.74205456,122.415543 6.48993868,123.824217 C8.2378228,125.231039 10.5364871,125.867811 10.1224653,124.733098 C9.70844342,123.640959 8.56004796,122.097157 8.88227311,121.369682 C9.20262487,120.686633 9.80024012,120.779187 8.65184466,118.959574 C7.54653744,117.097386 7.63833414,117.504624 8.0542294,116.188505 C8.46637786,114.868684 8.1460261,114.868684 9.38809167,113.961654 C10.6282838,113.052773 10.6282838,112.234595 10.3528937,111.50712 C10.0306686,110.825922 11.4582009,110.916625 11.0423057,109.280268 C10.6282838,107.643912 9.38809167,106.235239 10.3528937,105.916853 C11.2727341,105.644744 13.15925,103.192061 13.7568653,103.192061 C14.3994422,103.192061 18.8618859,102.964378 18.8618859,102.964378 C18.8618859,102.964378 17.3912653,99.0086166 17.2975952,98.5106756 C17.2057985,98.0108836 18.2174356,95.9654384 15.8269746,96.2819734 C13.4346401,96.5559334 9.47988837,96.2819734 9.70844342,95.5563494 C9.93887188,94.8288743 10.6282838,94.4216364 10.1224653,93.2387952 C9.61664672,92.0115281 8.65184466,91.9208251 8.65184466,91.9208251 M131.730613,214.351362 C132.142762,212.896412 132.603619,211.715422 132.834047,211.07865 C133.339866,209.716254 133.523459,209.260888 133.156272,205.534661 C132.603619,200.170226 131.408388,198.219186 129.799136,195.673949 C129.660504,195.446266 129.521872,195.218583 129.291444,194.900197 C128.465274,193.491524 127.773988,191.901445 127.26817,190.355791 C126.578758,188.356623 126.119774,186.357455 125.889346,184.856228 C125.567121,182.947763 123.911033,180.448803 122.026391,177.631457 C121.473737,176.811427 120.921083,175.950674 120.415265,175.176922 C119.358666,173.586843 118.669254,171.906061 118.069765,170.404834 C117.241722,168.405666 116.505475,166.678607 115.310244,166.088112 C115.173486,166.041835 114.804426,165.860429 114.482201,165.723449 C111.999943,164.542459 109.699405,163.452171 109.699405,159.905499 C109.699405,159.224301 109.699405,158.498677 109.744367,157.817479 C109.882998,155.544351 109.976669,153.680312 108.365543,152.636302 C107.078516,151.771847 105.744653,150.816688 104.824813,149.500569 C103.904972,148.136322 103.399154,146.499966 103.904972,144.321243 C104.686181,140.637591 130.166323,70.1521055 133.111311,62.0184529 C81.0925556,43.1115054 42.3187531,19.9341127 17.1140018,2.07487739 C16.8835733,2.48396643 16.8386117,3.0300355 17.3444302,5.52714458 C18.2642706,10.20853 20.2425832,8.7554309 19.3208694,12.1188462 C18.4029024,15.4804104 17.3444302,14.6640834 17.5748587,16.7983805 C17.7584521,18.9345286 20.562935,19.7545578 21.7132038,19.1603606 C22.8634727,18.5254396 22.9552694,19.9803897 24.2891317,19.3436177 C25.669829,18.7531226 24.1055383,17.4351525 27.5095098,17.4351525 C30.958443,17.4351525 30.3139927,14.7547864 32.8449589,16.7076775 C35.3272166,18.6161426 36.983304,18.4347366 36.3388537,20.2524987 C35.7412385,22.1165379 35.51081,23.206825 36.247057,24.7524781 C36.983304,26.2500031 35.51081,30.4334475 36.7528756,37.430536 C37.9949412,44.4757526 38.8229849,46.2935147 38.408963,48.7461978 C37.9949412,51.154455 37.8113478,56.5614643 36.6610789,59.6083447 C35.51081,62.6533739 34.774563,68.6527294 36.8915073,70.7888775 C38.9616166,72.9231746 40.6158306,77.5157081 42.2719181,79.6500052 C43.9280055,81.7843023 43.3303902,81.0586783 42.2719181,83.7834704 C41.2153193,86.5563906 39.4674352,87.6948058 38.7311882,90.330746 C37.9949412,92.9648351 38.5475948,92.7390032 36.8915073,94.0551222 C35.1904583,95.4193693 34.4991729,97.0094484 34.2706179,97.9201806 C34.0851511,98.8734876 32.8449589,96.4208045 31.1420364,98.1460125 C29.485949,99.8730717 25.8534224,98.6476557 27.4177131,101.600131 C28.9801304,104.554457 31.1420364,106.781308 29.8081741,107.2811 C28.4743119,107.779041 24.42589,103.008804 24.5195601,105.461487 C24.6113568,107.917872 28.06029,107.099694 25.9901807,109.008159 C23.8751098,110.96105 23.2774946,110.96105 23.5997197,111.869932 C23.8751098,112.778813 23.8751098,118.369079 25.1171754,118.050693 C26.4042026,117.780435 26.4959993,113.097199 27.4177131,115.733139 C28.3375535,118.369079 29.3023556,119.005851 30.1303993,117.95999 C30.958443,116.960406 30.4526245,116.325485 32.1087119,115.823842 C33.7629259,115.32405 35.0967882,113.187902 35.7412385,114.598426 C36.3388537,116.051525 35.9248319,116.64202 34.4991729,117.780435 C33.0285523,118.870722 34.1769478,119.503792 32.9348822,119.596346 C31.6928166,119.6889 30.1303993,119.096554 29.7163774,121.232702 C29.3023556,123.36885 30.4526245,123.550256 28.8883337,124.187029 C27.324043,124.777524 26.0838508,125.277316 26.0838508,126.595286 C26.0838508,127.913256 26.4042026,130.277087 27.4177131,129.547761 C28.4743119,128.868414 29.3023556,127.004375 30.5444212,126.186197 C31.7864867,125.368019 34.3624146,124.777524 32.7063271,126.821118 C31.0502397,128.868414 29.6245807,130.186384 30.222196,131.095265 C37.3055292,141.500195 22.2658574,140.865274 28.5661086,141.548323 C29.485949,141.637175 31.3724649,140.546888 31.2806682,141.365066 C31.1420364,142.183244 29.485949,142.183244 28.7515754,142.592333 C28.06029,143.001422 26.5896694,144.591501 27.7399383,145.500382 C28.8883337,146.45554 29.485949,145.13757 30.958443,145.228273 C32.384102,145.318976 34.6846397,144.321243 33.4425741,145.318976 C32.2005086,146.320411 32.8449589,144.909887 30.4526245,147.227441 C28.06029,149.591272 29.1655972,150.091064 29.1655972,150.091064 C29.1655972,150.091064 28.4743119,151.225777 29.6245807,152.227213 C30.7280146,153.224946 29.3023556,154.044975 29.8081741,155.272242 C30.3139927,156.499509 31.0502397,156.499509 32.5208603,157.225133 C33.9465193,157.906331 35.51081,156.906747 36.3388537,158.4524 C37.1668974,159.953627 35.0967882,159.135449 35.3272166,161.179043 C35.51081,163.224488 36.5692822,163.224488 37.9949412,163.814983 C39.4674352,164.451756 39.7896603,163.907538 40.6158306,164.633162 C41.4438744,165.360637 40.8012974,166.041835 41.4438744,167.269102 C42.043363,168.496369 41.2153193,169.403399 43.0081651,169.906893 C44.7579226,170.44926 45.2618678,169.723636 44.9864776,171.859784 C44.6642525,173.995932 47.0565869,172.859368 47.5624055,174.405021 C48.068224,175.904397 46.7343618,176.313486 46.6425651,177.766585 C46.5039333,179.17711 45.0782744,181.311407 47.4706088,182.040733 C49.8629432,182.721931 52.1147725,180.176694 52.4369976,181.311407 C52.7592228,182.447971 51.2867288,182.812634 51.2867288,184.17503 C51.2867288,185.493 51.1031354,185.493 51.2867288,186.901673 C51.5171572,188.310346 52.3452009,188.628732 53.8158216,188.538029 C55.2433539,188.445475 57.3134632,186.812821 55.8859308,189.358058 C54.4153102,191.901445 53.5872665,190.174385 53.6790632,192.582643 C53.7258983,193.584078 54.4153102,194.446682 55.1965189,195.081603 L55.3801123,194.537385 C55.518744,194.581811 87.7618669,205.081146 131.730613,214.351362" id="Fill-25" fill="#EBEBEB" mask="url(#mask-2)"></path>
                        </g>
                    </g>
                </g>
            </g>
        </g>
    </g>
</svg>