<?xml version="1.0" encoding="UTF-8"?>
<svg width="102px" height="146px" viewBox="0 0 102 146" version="1.1" xmlns="http://www.w3.org/2000/svg" xmlns:xlink="http://www.w3.org/1999/xlink">
    <!-- Generator: Sketch 57.1 (83088) - https://sketch.com -->
    <title>Manitoba</title>
    <desc>Created with Sketch.</desc>
    <defs>
        <polygon id="path-1" points="0 0 103 0 103 325 0 325"></polygon>
    </defs>
    <g id="Page-2" stroke="none" stroke-width="1" fill="none" fill-rule="evenodd">
        <g id="Artboard-Copy-3" transform="translate(-484.000000, -2719.000000)">
            <g id="Group-8" transform="translate(230.000000, 2357.000000)">
                <g id="Group-11" transform="translate(0.000000, 274.000000)">
                    <g id="编组">
                        <g id="Manitoba" transform="translate(254.349354, 1.174877)">
                            <mask id="mask-2" fill="white">
                                <use xlink:href="#path-1"></use>
                            </mask>
                            <g id="Clip-26"></g>
                            <path d="M43.1912605,210.568954 C43.1912605,210.568954 40.5834932,215.696402 40.9020133,217.756704 C41.2242589,219.815141 43.3738042,222.151393 44.1039791,222.151393 C44.839742,222.151393 47.0786965,223.890996 47.4903512,220.318563 C47.9001433,216.747995 46.2553871,214.963643 47.214673,213.362015 C48.1311169,211.713774 44.9310139,204.848587 43.4650761,201.046818 C42.0475683,197.246913 41.9562964,198.483094 40.5834932,193.174787 C39.2591199,187.864615 38.3445386,182.325107 35.4163884,177.930418 C32.5348055,173.489116 35.3698212,168.089447 34.8668946,166.898015 C34.3658307,165.708447 33.9504506,164.291407 33.309685,164.242423 C32.6745073,164.198181 32.1250135,167.127352 31.7096334,168.777458 C31.3017041,170.470448 30.5230993,171.753242 31.3464087,173.216895 C32.1678554,174.633935 31.5755197,175.871981 30.7484849,174.77191 C29.9270382,173.718453 29.427837,172.437523 27.6415164,173.628956 C25.8123538,174.77191 25.3578572,172.301413 25.033749,174.451212 C24.7599334,176.602875 24.3035741,177.106298 23.5249693,178.98574 C22.7500899,180.859589 22.8413617,182.233745 21.9714851,182.006273 C21.1016084,181.821685 21.375424,180.723479 20.1423225,180.950951 C18.9073584,181.135539 18.084049,181.95966 17.2626023,181.27165 C16.4374302,180.630253 16.1170474,179.761383 16.1170474,178.845901 C16.1170474,177.930418 15.1558988,177.656333 14.9305132,176.787464 C14.7461068,175.91673 15.9345037,174.680549 15.8897991,173.94779 C15.7985272,173.261644 13.5539846,173.35487 13.6024146,172.484136 C13.6471191,171.613403 15.3868725,170.149749 14.5635631,169.510217 C13.7421164,168.913568 12.3227459,167.539412 12.1420649,169.098156 C12.002363,170.699785 11.7285475,171.613403 11.7285475,173.07892 C11.7285475,174.589187 13.5111427,174.77191 12.5071523,175.734006 C11.5441411,176.651353 10.9518053,177.473609 10.4023115,177.518358 C9.80811308,177.564971 7.24877569,176.237428 8.07022241,178.023645 C8.89353181,179.807996 9.7615458,180.128695 11.7285475,181.913047 C13.6955491,183.699263 14.3810194,183.790625 15.7519599,183.790625 C17.1694678,183.790625 19.000493,183.973349 19.639396,184.019962 C20.2317317,184.06471 21.2394475,183.699263 22.1987334,183.881987 C23.2064492,184.113188 24.9443398,183.333816 25.9948975,183.835374 C27.0026134,184.385409 28.9658896,184.978328 27.6862209,185.576841 C26.4084149,186.216374 24.2123023,186.216374 24.8065007,187.681892 C25.3578572,189.192158 27.2745662,191.526545 27.2745662,191.526545 C27.2745662,191.526545 30.8434821,194.548943 31.4358178,197.431501 C32.0765835,200.271175 32.8551884,201.460743 33.2668431,201.552104 C33.6784978,201.688215 34.0417225,199.674526 34.412398,199.217717 C34.7756227,198.759044 35.5989321,197.752199 36.558218,198.759044 C37.5659338,199.765888 38.0222931,199.810637 38.4805151,200.68137 C38.9350117,201.552104 38.8008979,202.786421 38.6183542,203.977853 C38.4805151,205.169286 37.1989837,205.90018 38.9350117,206.174265 C40.6766277,206.450215 40.494084,204.3433 41.2726888,204.069215 C42.0475683,203.839878 43.2825324,203.793265 43.3290996,204.3433 C43.3738042,204.893336 42.8261731,205.670843 42.6864713,206.586326 C42.5951994,207.501808 43.1912605,207.73301 43.5563479,208.325929 C43.8767308,208.920713 43.1912605,210.568954 43.1912605,210.568954 L43.1912605,210.568954 Z M59.1060921,232.725123 L55.2652233,186.719796 L55.2186561,186.399098 L55.4011998,186.169761 C55.4924716,186.078399 77.2617409,159.986215 87.3668394,144.881686 C92.3998304,137.32849 97.5650724,131.102836 101.450646,126.799508 C100.582632,126.389313 99.5320741,126.020136 98.1592708,125.7908 C93.2212771,124.968543 92.3998304,125.7908 90.4291033,124.877182 C88.4639644,123.961699 90.6153724,121.079141 84.529961,122.81688 C78.4501377,124.556483 78.2210268,127.028845 76.4831361,127.670242 C74.7433827,128.263162 73.3743049,127.944328 73.921936,126.113363 C74.4248626,124.284262 73.512144,123.456412 73.2811703,121.718674 C73.1004893,119.979071 70.4927219,113.11202 69.4850061,110.365572 C68.4363111,107.574376 67.5198672,108.398497 67.1100752,106.246833 C66.6965578,104.095169 66.5587186,102.95035 63.2673437,103.179687 C59.9759688,103.362411 57.1856577,104.003808 56.8671376,102.448793 C56.544892,100.936662 52.7487278,101.531446 54.4866185,98.9677216 C56.2692138,96.4039977 56.6827311,95.9005756 55.6321734,93.7507765 C55.1739515,92.7886809 55.1255215,90.224957 55.2652233,87.5251226 C40.4028121,89.4940626 23.755943,90.3610674 5.50902233,89.5835598 L4.63914565,113.889527 C5.28177404,114.210226 6.01194889,114.713648 6.74212375,115.446407 C8.34403798,117.094648 6.65085189,118.558301 4.41189736,119.841096 L0.250645746,231.076881 C28.6492322,232.631896 50.872998,232.725123 58.1933735,232.725123 L59.1060921,232.725123 Z" id="Fill-19" fill="#EBEBEB" mask="url(#mask-2)"></path>
                        </g>
                    </g>
                </g>
            </g>
        </g>
    </g>
</svg>