<?xml version="1.0" encoding="UTF-8"?>
<svg width="196px" height="131px" viewBox="0 0 196 131" version="1.1" xmlns="http://www.w3.org/2000/svg" xmlns:xlink="http://www.w3.org/1999/xlink">
    <!-- Generator: Sketch 57.1 (83088) - https://sketch.com -->
    <title>NAL</title>
    <desc>Created with Sketch.</desc>
    <defs>
        <polygon id="path-1" points="0 0 195 0 195 325 0 325"></polygon>
    </defs>
    <g id="Page-2" stroke="none" stroke-width="1" fill="none" fill-rule="evenodd">
        <g id="Artboard-Copy-3" transform="translate(-736.000000, -2654.000000)">
            <g id="Group-8" transform="translate(230.000000, 2357.000000)">
                <g id="Group-11" transform="translate(0.000000, 274.000000)">
                    <g id="编组">
                        <g id="NAL" transform="translate(506.349354, 1.174877)">
                            <mask id="mask-2" fill="white">
                                <use xlink:href="#path-1"></use>
                            </mask>
                            <g id="Clip-26"></g>
                            <path d="M120.869502,95.3873776 C121.237086,94.9273792 121.512774,94.2841293 121.927244,93.2762466 C123.080633,90.5218657 122.204807,89.4653652 123.678894,87.124235 C125.151106,84.7382269 126.163837,82.0754717 124.920428,80.2392178 C123.031871,77.3932112 107.608347,65.8240636 103.187962,67.4751962 C101.852657,68.0268203 103.096066,69.2198244 101.852657,71.0112004 C100.609248,72.7558286 99.2739428,74.9137074 98.7206914,72.0190832 C98.2180766,69.1281987 97.156584,66.5570692 95.4068092,66.9721898 C93.6589098,67.3854404 92.0910516,68.118446 91.7703533,69.7714485 C91.4459042,71.3777032 88.9590859,70.6895755 88.223918,74.2704576 C87.5356357,77.8494698 86.6598106,80.1475921 86.4760186,82.4887223 C86.2434654,84.8747305 84.0810963,83.1301023 84.0810963,85.7928574 C84.0810963,88.4556126 83.0214792,93.2762466 82.516989,90.7967428 C82.0087478,88.3639869 82.333197,86.6193587 81.0897878,86.8026101 C79.799493,87.0307394 76.1630371,88.2256134 76.8063091,87.0307394 C77.4514565,85.7928574 80.6734427,85.6544839 81.0897878,84.5531055 C81.5023821,83.4049794 79.3850233,81.6622211 81.5942781,80.6505985 C83.7566472,79.5959679 88.223918,76.1067115 87.213062,75.6018352 C86.1515694,75.0969589 84.3136495,74.4985869 85.6489546,73.1223314 C86.9805088,71.7909538 89.2835351,71.1944518 89.3754311,69.2198244 C89.4673271,67.2938147 90.1124745,67.2003191 91.2639876,66.1419487 C92.4155007,65.1340659 94.4878492,61.1399332 91.7703533,61.3231846 C89.0547328,61.5513139 88.5483671,63.1594385 87.3030826,62.381555 C86.0596734,61.5513139 83.4359489,59.5804263 82.7457912,61.7383051 C82.0087478,63.8943141 80.2139627,66.1419487 78.7848862,65.4556909 C77.3126748,64.7226852 77.8659262,61.8299308 74.919628,63.3894377 C59.7230306,71.4693289 62.993778,60.9566818 47.8009315,61.4166802 C44.5770698,61.5513139 43.654359,59.991807 43.1498687,59.1671757 C42.5984927,58.3406744 39.7872254,57.0092968 41.2631876,56.9176711 C42.7335236,56.8260454 43.0092116,57.7423025 45.4060093,57.7423025 C47.8009315,57.7423025 48.4442035,57.9274238 48.6279955,55.9079185 C48.8567977,53.8397954 47.8009315,53.2002854 46.9701166,52.0054114 C46.1411772,50.7656595 46.0474058,49.2959084 43.2417647,50.1224097 C37.4860746,51.8202901 30.8076736,40.7560188 29.1966805,43.1457668 C27.9532714,45.0250287 27.1262074,47.5512802 26.7098623,46.0366512 C25.1888897,40.4830116 24.5943789,34.6526249 12.0683917,31.1614986 C8.01746613,30.0152423 6.45335874,30.9314994 5.89823189,28.6819949 C5.39374162,26.4324903 5.30184562,25.8827361 4.37913479,24.9646091 C3.4132891,24.0483521 1.02024229,21.5688483 0.328209168,23.1283552 C0.144417172,23.4967279 0.0506457459,23.8613608 0.0506457459,24.2764814 C0.83457487,26.2492389 1.75541028,28.038745 2.8150274,29.0952455 C4.19534279,30.4733709 5.99012789,31.3914978 7.46421471,32.1263734 C8.24814384,32.539624 8.93642611,32.9079967 9.48967752,33.2726296 C11.1025461,34.331 11.7927038,35.4323784 10.5961804,37.2218845 C10.2285964,37.7735086 10.0898147,38.3232629 10.0898147,38.874887 C10.0898147,39.6546404 10.3655026,40.389516 10.7818478,41.0327658 C11.1944421,41.6741458 11.7008078,42.180892 12.1602877,42.4538992 C12.2990695,42.5473948 12.3928409,42.5941426 12.4378512,42.5941426 C12.5278717,42.5941426 13.0361129,42.180892 13.6812603,41.7208936 C14.1407403,41.3562607 14.6921163,40.8943923 15.2922534,40.5278895 C16.8132259,39.6097625 18.3304476,39.1497641 19.343179,40.7111409 C20.2658898,42.180892 19.8514201,44.613648 19.3919401,46.9080304 C19.1143767,48.6077807 18.7899276,50.2140354 19.159387,50.8105374 C19.526971,51.5005351 20.5865881,51.8670379 21.7399767,52.2784186 C23.0265206,52.7384171 24.4537217,53.2432934 25.6521206,54.2997939 C26.848644,55.4011722 27.7694794,56.4109249 28.5046474,57.6057989 C29.1966805,58.7988029 29.7049216,60.0834327 30.0237445,61.7383051 C30.258173,62.70131 30.1644016,63.8494362 30.1156405,65.0443101 C29.9337239,67.521944 29.7480565,70.2763249 32.5124381,71.6544502 C34.5829112,72.662333 37.1166152,72.5707073 39.1889637,72.4342037 C41.8145636,72.342578 43.838151,72.2490824 43.9769327,74.3620833 C44.0707041,75.6018352 45.4491441,77.0697164 46.6494184,78.3562161 C47.7052846,79.5043422 48.6279955,80.5589728 48.7649017,81.4770997 C48.8117875,81.7987247 48.9486937,82.2587231 49.0893509,82.8103472 C49.6876126,85.0112341 50.608448,88.2704913 47.9847235,89.8318681 C46.8313349,90.5667436 45.9573852,90.7518649 45.0365498,90.9351163 C43.7012447,91.2099935 42.3171785,91.5297485 39.7422151,93.6894972 C37.5329603,95.570629 35.5956426,97.1768837 33.7558472,98.1417585 C31.7753947,99.196389 29.9806096,99.475006 28.2777205,98.5101312 C26.6179663,97.5452565 23.0265206,95.8473761 20.5865881,95.2041262 C19.9433161,95.0208748 19.435075,94.9273792 19.1143767,94.974127 C19.067491,94.974127 19.067491,94.7441278 19.067491,94.8357535 C19.0224807,94.8825013 19.067491,95.0208748 19.159387,95.2490041 C19.4819607,95.8473761 19.7595241,96.4420082 20.0802224,96.9936323 C21.5543092,99.8396389 22.5670406,101.859144 20.1721184,103.558895 C19.8514201,103.835642 19.5738567,104.065641 19.3919401,104.29377 C19.1143767,104.660273 18.9324602,105.028646 18.975595,105.441896 C18.975595,105.855147 19.159387,106.315145 19.5738567,106.8649 C19.9433161,107.369776 20.4946921,107.91953 21.2317355,108.516032 C22.0606749,109.159282 22.8896144,109.664158 23.7673149,110.169035 C26.113476,111.592038 28.4615125,113.016911 30.8076736,117.377547 C32.6024587,120.7303 34.2622129,121.094932 35.6912895,121.416557 C36.7021455,121.646557 37.671742,121.831678 38.5419408,122.749805 C39.3277454,123.48281 39.9710174,124.447685 40.5711545,125.363942 C41.5838859,126.833693 42.5497316,128.211819 43.3336607,127.890194 C43.654359,127.798568 43.930047,127.662065 44.2526207,127.523691 C46.4168652,126.605564 48.8567977,125.502316 50.8353748,127.476943 C51.3923771,127.983689 51.619304,127.935072 51.986888,127.843446 C52.8627131,127.613447 54.0142262,127.34044 56.6398261,128.533444 L57.5156513,128.946694 C59.4023324,129.862951 60.7376375,130.506201 61.4728054,130.506201 C61.7972546,130.506201 61.982922,130.139698 61.982922,129.268319 C61.982922,128.348322 61.1070969,126.05394 60.0943655,123.436063 C58.7102992,119.765425 57.0561713,115.449667 56.9623998,112.556913 C56.8705038,110.445782 57.5587861,109.020908 59.5861243,108.9779 C64.5578854,108.792779 65.5724922,110.354156 65.6643882,112.968293 C65.7093985,113.611543 65.6643882,114.301541 65.6175025,114.989669 L65.6175025,115.128042 C65.5724922,115.679666 65.5237311,116.139665 65.4805962,116.551045 C65.3418145,118.570551 65.2499185,119.718677 65.8481802,119.85705 C66.4014316,120.040302 66.8609116,120.408675 67.2772567,120.821925 C68.057435,121.508183 68.9801458,122.334684 71.0956292,119.901928 C74.0419274,116.45942 82.8376872,111.270413 88.9590859,107.691401 C90.2024951,106.956525 91.3558836,106.266528 92.460511,105.5784 C94.3490675,104.430274 97.4341475,101.675893 100.701144,98.6933826 C106.828169,93.1846209 113.686611,86.9877314 116.034648,89.0072367 C117.602506,90.2918665 119.397291,93.0013695 120.869502,95.3873776 M128.973229,118.020797 C129.98596,120.08705 132.333997,119.4438 131.22937,120.451683 C125.980045,125.182561 132.290862,124.814188 131.506933,131.196199 C131.321266,132.938957 131.415037,134.36383 131.321266,135.188462 C131.182484,136.016833 130.35542,137.026586 129.847179,138.357963 C129.342688,139.687471 127.456007,141.433969 129.755283,141.157222 C132.058309,140.837467 135.282171,137.256585 135.372191,139.001213 C135.465963,140.743971 133.577406,144.326723 133.577406,145.564605 C133.577406,146.804357 133.393614,149.560608 134.406345,150.476865 C135.465963,151.394992 138.687949,153.78287 140.252056,151.394992 C141.819914,149.051992 144.214837,146.667854 146.7898,145.47298 C149.419151,144.235098 148.678357,144.921355 152.316688,142.2586 C155.953144,139.597715 157.79669,139.827714 158.119264,138.266337 C158.439962,136.704961 160.328519,131.701075 161.988273,132.114326 C163.644276,132.525707 161.988273,134.775211 164.150642,134.866837 C166.359897,134.960332 166.313011,134.042205 167.877118,133.445703 C169.444977,132.802454 169.030507,131.057825 169.673779,129.451571 C170.273916,127.798568 173.728455,127.291822 173.175204,128.808321 C172.668838,130.369698 170.090124,131.287825 171.10098,133.215704 C172.162473,135.188462 171.657982,136.29171 171.009084,137.116341 C170.412698,137.944712 167.695202,140.513972 169.444977,140.929093 C171.241637,141.340473 171.425429,141.020718 172.897641,140.009096 C174.324842,139.001213 175.294438,139.184464 175.294438,137.759591 C175.294438,136.29171 174.049154,134.545212 174.463623,132.710828 C174.878093,130.876444 173.636559,128.120193 174.878093,127.155318 C176.121502,126.237191 175.800804,123.666062 176.395315,123.163055 C177.044213,122.656309 180.588773,122.656309 180.77069,123.252811 C181.003243,123.896061 178.700216,125.320934 181.095139,127.476943 C183.488185,129.636692 182.659246,130.644575 183.580081,131.37945 C184.545927,132.114326 186.205681,131.196199 186.205681,128.899947 C186.205681,126.650442 186.205681,124.400937 187.126517,125.229309 C188.045477,126.05394 188.045477,127.155318 188.878167,127.983689 C189.705231,128.808321 188.878167,129.543196 190.762973,128.899947 C192.651529,128.305314 192.006382,127.291822 193.157895,126.742068 C194.307533,126.237191 195.550942,126.467191 194.080606,124.309312 C192.651529,122.153303 191.085546,120.408675 191.085546,119.075427 C191.085546,117.745919 191.914486,115.266416 190.762973,114.118289 C189.613335,113.016911 189.840262,110.948788 188.184258,112.18854 C186.481369,113.428292 186.893964,116.919418 186.0669,116.781045 C185.23796,116.691289 182.983695,116.091047 182.983695,114.623166 C182.983695,113.198293 183.810759,107.874652 181.924078,108.9779 C180.035522,110.124157 180.359971,112.098784 179.85173,113.016911 C179.345364,113.933168 178.283871,114.853165 179.435384,116.276168 C180.588773,117.745919 182.014099,119.352174 180.588773,119.352174 C179.116562,119.352174 178.283871,119.075427 177.364911,117.194295 C176.395315,115.358041 174.324842,114.439914 175.06001,111.777159 C175.800804,109.114404 176.950442,106.22165 176.395315,105.303523 C175.8927,104.385396 174.969989,101.584267 173.313986,104.660273 C171.657982,107.783026 173.313986,110.124157 171.009084,109.61928 C168.709809,109.114404 168.617913,108.286033 167.787098,107.048151 C166.958158,105.808399 168.019651,103.330765 166.545564,102.227517 C159.501455,96.7187552 156.04504,101.217764 154.713486,106.543275 C154.480932,107.369776 155.2161,107.874652 154.389036,107.553027 C153.561972,107.231402 151.489624,105.395148 150.840726,106.956525 C150.246215,108.471154 150.107433,110.307408 148.543326,110.307408 C147.022353,110.307408 143.800367,112.373661 144.306733,109.2079 C144.813098,106.036528 147.299917,103.465399 144.903119,103.87865 C142.555082,104.247022 141.268538,107.644653 140.437724,107.231402 C139.608784,106.818152 138.044677,105.900025 137.952781,107.644653 C137.860885,109.389281 139.012398,111.960411 137.860885,112.60366 C136.709372,113.198293 133.162936,109.940905 134.222553,107.369776 C135.741651,103.558895 133.946865,86.3893595 130.906796,91.2099935 C130.35542,92.0364947 127.776706,90.9351163 129.755283,89.8786159 C131.735735,88.8688632 132.658446,87.5393555 132.242101,86.7091145 C131.827631,85.8844831 131.506933,84.2314806 129.939075,86.1144823 C128.418102,87.9507363 127.131558,87.3093563 126.212598,89.2802439 C125.289887,91.2099935 126.026931,92.862996 125.796253,94.9273792 C125.610586,96.9936323 124.232146,97.5901343 124.64474,100.069638 C125.05921,102.504264 125.199867,103.147514 126.026931,105.808399 C126.580182,107.599775 128.881333,117.788927 128.973229,118.020797" id="Fill-5" fill="#EBEBEB" mask="url(#mask-2)"></path>
                        </g>
                    </g>
                </g>
            </g>
        </g>
    </g>
</svg>