<?xml version="1.0" encoding="UTF-8"?>
<svg width="214px" height="197px" viewBox="0 0 214 197" version="1.1" xmlns="http://www.w3.org/2000/svg" xmlns:xlink="http://www.w3.org/1999/xlink">
    <!-- Generator: Sketch 57.1 (83088) - https://sketch.com -->
    <title>Ontario</title>
    <desc>Created with Sketch.</desc>
    <defs>
        <polygon id="path-1" points="0.549354254 0 213.549354 0 213.549354 325 0.549354254 325"></polygon>
    </defs>
    <g id="Page-2" stroke="none" stroke-width="1" fill="none" fill-rule="evenodd">
        <g id="Artboard-Copy-3" transform="translate(-541.000000, -2760.000000)">
            <g id="Group-8" transform="translate(230.000000, 2357.000000)">
                <g id="Group-11" transform="translate(0.000000, 274.000000)">
                    <g id="编组">
                        <g id="Ontario" transform="translate(310.800000, 1.174877)">
                            <mask id="mask-2" fill="white">
                                <use xlink:href="#path-1"></use>
                            </mask>
                            <g id="Clip-26"></g>
                            <path d="M13.979331,238.642647 C14.1611455,238.687528 14.3002893,238.777289 14.4802485,238.82591 C14.9830214,239.007302 15.5303202,239.098934 16.0757638,239.052183 C17.6694238,238.915671 18.8104027,239.052183 19.9495264,239.192435 C20.9495063,239.328947 21.9977227,239.467329 23.3631869,239.284066 C24.9568469,239.098934 26.7341766,239.052183 28.3760731,239.284066 C31.3815786,239.788973 41.3554041,247.042802 42.585435,246.584646 C42.6763423,246.537895 42.8117756,246.446264 42.9490641,246.401383 C45.817281,243.188679 52.741075,244.563148 56.4311679,245.939487 C57.3420957,246.261131 58.0248278,246.676277 58.7094152,247.134433 C59.3476213,246.90442 59.6648691,246.584646 59.6648691,246.584646 C59.6648691,246.584646 59.8930649,246.676277 63.1731474,242.956796 C66.4513746,239.284066 64.0840753,238.777289 66.7686224,237.539332 C69.4587353,236.299506 72.9206323,235.289692 72.1006117,236.712781 C71.2787358,238.135871 68.9114365,238.135871 68.6368594,239.788973 C68.3196116,241.442076 65.542302,242.865165 67.2713952,243.188679 C69.048725,243.508454 67.6814056,241.213933 71.0969213,240.108747 C74.4679111,238.960552 73.1469729,237.036296 76.4252001,237.309319 C79.7052826,237.630964 80.4325407,237.309319 83.5308087,238.044239 C86.6290767,238.777289 87.9500149,239.052183 88.1318294,240.29388 C88.3618804,241.533707 85.675478,243.370072 91.0482828,245.344819 C96.3765616,247.270945 96.3765616,246.584646 98.3357059,245.847856 C100.292995,245.114806 105.851325,244.424766 104.209428,246.584646 C102.571242,248.740785 100.886675,250.074113 102.025799,251.082057 C103.164922,252.140491 104.300336,251.725346 105.439459,252.918422 C106.578583,254.158249 105.124067,255.628089 106.445005,257.14468 C107.808614,258.704281 108.901356,260.12737 108.083191,261.045553 L108.038665,261.092303 C108.083191,261.827223 107.901376,262.466772 107.580418,263.110061 C107.216789,263.848721 110.222294,262.375141 112.545068,264.53502 C114.734263,266.506027 114.687882,268.989421 115.235181,269.447577 C115.279707,269.494328 115.368759,269.539209 115.416995,269.585959 L115.507903,269.585959 C116.556119,269.67759 117.556099,269.905734 117.691532,268.669647 C117.873347,267.42982 117.691532,266.786531 119.377955,266.878162 C121.017996,266.921173 121.975305,266.554648 123.478058,265.866479 C124.982666,265.22319 127.669068,266.969794 129.53545,266.324635 C131.403687,265.728097 131.585501,264.030113 134.271904,264.626652 C136.962017,265.26994 137.006543,263.75522 138.69111,264.166625 C140.375677,264.581771 141.514801,266.463017 142.653925,266.371385 C143.794904,266.324635 143.473945,264.946426 144.703976,265.408322 C145.934007,265.866479 146.66312,265.180179 147.390379,264.993177 C148.119492,264.856665 151.03409,264.581771 151.852255,266.324635 C152.675987,268.069369 156.816905,268.804289 157.410585,270.229248 C157.956029,271.695348 156.909668,271.88048 157.956029,273.120307 C159.052482,274.360134 161.55707,275.555081 160.690668,276.196499 C159.824266,276.882799 159.143389,277.344695 159.872502,278.354509 C160.599761,279.362452 161.236111,281.38582 160.36971,281.933737 C159.507018,282.534016 159.18606,282.577026 156.725998,281.660714 C154.269647,280.742531 154.542368,282.027239 152.22145,281.017425 C149.894966,280.054362 148.939513,278.904296 147.618574,277.847732 C146.342162,276.748157 147.893151,276.058117 145.158512,275.463449 C142.423874,274.909922 141.835759,274.818291 141.060265,275.781354 C140.28477,276.748157 140.785688,278.262877 142.653925,278.171246 C144.522162,278.032864 146.705791,279.134309 146.84308,279.547585 C147.02675,279.962731 147.527667,281.245568 148.210399,281.886987 C148.848605,282.577026 148.848605,284.366641 148.299451,284.918298 C147.754008,285.516706 147.481286,286.707913 146.431214,288.72941 C145.431234,290.747168 145.021224,290.246001 145.479471,293.09218 C145.934007,295.983239 145.570378,294.242245 146.206729,296.856541 C146.796698,299.472707 147.893151,299.794351 147.438615,301.447453 C146.982224,303.145437 145.479471,302.732161 145.570378,304.800409 C145.65943,306.866787 143.473945,306.451642 143.473945,308.241256 C143.473945,310.03274 143.336657,311.777474 141.789378,312.647036 C140.242099,313.520338 139.646564,313.935484 139.145646,315.86161 C139.054739,316.185124 138.921161,316.504899 138.782017,316.734912 L138.69111,317.699845 C138.555677,319.214566 138.416533,320.547894 138.370152,321.647469 C138.921161,322.107495 139.600183,322.657282 140.422059,323.023807 C142.332966,323.94386 143.06208,324.493648 144.837554,323.485704 C146.66312,322.522641 145.388564,321.787721 149.032275,319.308067 C152.675987,316.781662 152.675987,315.818599 154.81509,313.385696 C157.000575,310.949053 158.139699,309.342701 159.824266,309.481083 C161.508833,309.617595 162.423472,310.906042 164.655338,309.941109 C165.152545,309.712966 165.518029,309.525964 165.838987,309.29782 C166.382576,308.196375 166.838967,307.184692 167.248978,306.266509 C167.842658,304.89204 168.389956,303.652213 169.117215,302.412387 C168.523535,301.997241 167.887184,302.043992 167.523555,300.022494 C167.069018,297.451209 166.976256,296.581647 168.569916,296.121621 C170.165431,295.659725 171.395462,293.183811 171.803617,292.035615 C172.213627,290.842539 177.131896,284.781786 181.68839,283.541959 C186.198504,282.302133 187.109432,279.044548 187.929452,279.227811 C188.747618,279.454084 189.066721,282.11887 191.753123,281.795356 L192.391329,281.703724 C193.166824,280.925794 193.942319,280.054362 194.760484,279.18106 L194.98868,278.952917 C194.350474,277.389576 192.437711,275.691592 194.124133,275.414829 C196.081422,275.141805 194.396855,274.498516 197.719608,274.909922 C198.040566,274.956672 198.359669,274.999683 198.676917,274.999683 C202.138814,271.469075 206.012577,268.20775 210.110825,267.106305 C211.066279,266.829542 212.159021,266.554648 213.3,266.324635 C212.752701,264.993177 212.023588,263.8001 211.066279,263.06705 C209.563526,261.916985 209.018082,261.873974 207.830722,261.827223 C206.878979,261.782343 205.465278,261.735592 202.95698,261.135314 C199.906948,260.449015 197.719608,259.528962 195.851371,258.704281 C194.075897,257.969361 192.573144,257.327942 191.025865,257.18769 C188.43037,256.914666 187.929452,256.637903 186.606659,255.813221 C186.107597,255.489707 185.515772,255.123182 184.556607,254.616405 L183.922112,254.296631 C181.233854,252.826791 180.003823,252.183502 176.768267,252.460266 C174.72007,252.598648 172.397297,253.056804 170.438153,253.380318 C168.844493,253.700093 167.432647,253.930106 166.566245,253.974986 C164.516194,254.115238 163.284308,252.183502 161.55707,249.520586 C161.328874,249.200811 161.145204,248.879167 160.737049,248.282629 C159.688833,246.721158 158.367894,245.894606 157.228771,245.114806 C156.180554,244.424766 155.178719,243.830098 154.494132,242.773534 C153.768729,241.76372 153.173194,240.385511 152.675987,238.960552 C152.080451,237.262569 151.672296,235.472954 151.579534,234.279878 C151.488626,233.498207 149.804059,227.439325 147.844915,220.552021 C145.158512,211.140183 141.926666,200.305255 141.514801,199.250561 C141.102935,198.240747 139.830234,195.52921 138.464769,193.144927 C137.50746,191.445074 136.550151,189.930354 135.9138,189.240314 C135.683749,188.96729 135.368357,188.597025 135.09378,188.18562 C133.681934,187.772344 130.537285,187.267437 129.581831,187.267437 C128.53547,187.267437 126.893573,185.109428 125.891738,183.228182 C124.845377,181.391817 122.613511,179.050545 120.745274,178.957044 C118.878892,178.820532 116.509738,178.820532 116.509738,177.90048 C116.509738,176.982297 118.467027,175.145932 115.507903,174.321251 C112.500542,173.4947 111.682376,173.081424 110.949553,171.33669 C110.268676,169.590086 107.354078,168.352129 108.083191,166.19412 C108.810449,164.036111 110.769593,165.780844 109.131407,162.614891 C107.489511,159.400317 106.851305,159.400317 106.261335,157.057176 C105.621274,154.715904 104.803108,157.37882 103.663985,153.980984 C102.524861,150.583147 103.07216,152.651396 102.843964,149.160058 C102.66215,145.67059 105.621274,141.861348 101.934891,141.128298 C98.1984174,140.436389 99.6566441,141.358312 94.5083246,140.943166 C89.3618603,140.52989 85.9018185,141.539704 85.2636125,141.769717 C71.4605504,146.36063 60.2566939,134.377506 53.0601781,131.66784 C49.9619101,130.521514 48.4610127,129.234936 46.8673527,128.225123 C42.9935901,132.494391 37.8025998,138.738406 32.7470428,146.40551 C23.1813723,160.821537 3.23001084,185.064547 1,187.727464 L4.69009281,233.68334 C5.18915513,233.68334 5.64369145,233.730091 6.10193827,233.730091 C8.05922731,233.730091 9.42654677,233.68334 10.6992485,235.88623 C11.111114,236.61928 12.0684232,237.586083 13.2502176,238.274252 C13.4802686,238.410764 13.7047539,238.551016 13.979331,238.642647 M116.830696,164.771031 C116.830696,164.771031 112.912407,163.944479 111.999624,165.780844 C111.088696,167.61908 109.63418,168.305379 111.409655,168.765405 C113.229655,169.223561 116.281542,169.317063 116.737933,169.547076 C117.194325,169.728468 119.515243,170.510139 120.971615,170.325006 C122.474367,170.096863 123.568965,169.360073 122.292553,167.800472 C120.971615,166.19412 120.381645,165.642463 119.559769,165.320818 C118.741604,164.999174 116.830696,164.771031 116.830696,164.771031 M123.249862,270.41064 C124.706233,271.053929 126.483563,270.502272 127.305439,270.459261 C128.123604,270.41064 129.171821,271.053929 130.585522,271.283942 C132.041893,271.469075 131.357306,271.237192 133.72646,271.742099 C136.095615,272.248875 136.186522,272.248875 138.09743,272.342377 C140.012048,272.477019 142.381203,271.10255 141.193843,270.41064 C140.012048,269.67759 139.145646,270.868797 139.145646,269.219434 C139.145646,267.564462 138.963832,266.189993 137.733801,266.878162 C136.50377,267.519581 136.731966,267.656093 135.865564,267.287698 C134.956491,266.878162 134.271904,266.73791 133.999182,267.611212 C133.72646,268.480774 133.54279,268.480774 132.088274,268.297512 C130.674574,268.069369 129.581831,267.979607 129.307254,268.669647 C129.080914,269.309195 129.670883,269.62897 128.578141,269.309195 C127.529924,269.034302 127.713594,268.346132 125.982646,268.20775 C124.207171,268.022618 124.025357,267.887976 123.704398,268.437764 C123.389006,269.034302 121.244336,269.170814 121.244336,269.170814 C121.244336,269.170814 118.149779,269.860853 117.691532,270.549022 L117.919728,270.593903 C118.832511,270.917417 119.697058,271.237192 120.517078,271.650467 C122.110738,271.14556 123.249862,270.41064 123.249862,270.41064" id="Fill-1" fill="#EBEBEB" mask="url(#mask-2)"></path>
                        </g>
                    </g>
                </g>
            </g>
        </g>
    </g>
</svg>