<?xml version="1.0" encoding="UTF-8"?>
<svg width="94px" height="84px" viewBox="0 0 94 84" version="1.1" xmlns="http://www.w3.org/2000/svg" xmlns:xlink="http://www.w3.org/1999/xlink">
    <!-- Generator: Sketch 57.1 (83088) - https://sketch.com -->
    <title>other</title>
    <desc>Created with Sketch.</desc>
    <defs>
        <polygon id="path-1" points="0.249354254 0.374877393 93.2493543 0.374877393 93.2493543 325.374877 0.249354254 325.374877"></polygon>
    </defs>
    <g id="Page-2" stroke="none" stroke-width="1" fill="none" fill-rule="evenodd">
        <g id="Artboard-Copy-3" transform="translate(-787.000000, -2797.000000)">
            <g id="Group-8" transform="translate(230.000000, 2357.000000)">
                <g id="Group-11" transform="translate(0.000000, 274.000000)">
                    <g id="编组">
                        <g id="other" transform="translate(557.100000, 0.800000)">
                            <mask id="mask-2" fill="white">
                                <use xlink:href="#path-1"></use>
                            </mask>
                            <g id="Clip-26"></g>
                            <path d="M49.0090359,183.597941 C48.3933309,185.085483 48.2987555,187.547688 48.4859762,188.895182 C48.7233797,190.242676 47.6347977,191.217338 50.0030424,191.217338 C52.3230344,191.217338 52.9908524,190.149941 53.5081218,191.217338 C54.0311816,192.239314 53.6026972,192.657567 55.4517424,192.239314 C57.2544649,191.821061 56.2102755,192.426676 57.7755946,191.635591 C59.3853061,190.800977 58.9568218,189.824423 60.8058669,190.893712 C62.6085895,191.917581 62.8440629,191.917581 64.4074518,191.310073 C66.0210236,190.660929 66.6830513,189.962579 68.2927628,190.382724 C69.9044045,190.800977 72.9848597,191.728326 72.5602356,189.962579 C72.1317512,188.198724 68.2927628,187.362218 69.9044045,186.012832 C71.4697235,184.665337 74.3590979,179.555458 70.9466638,180.391965 C67.5361598,181.228471 67.4415844,182.901483 65.1679151,184.110821 C62.9386383,185.363688 61.9446317,184.759965 59.9546885,185.689206 C57.9164926,186.618447 58.2002187,188.291459 56.4013564,188.382301 C54.600564,188.476929 55.0271182,187.640423 52.562368,187.362218 C50.0976178,187.0367 49.0090359,187.129435 50.0976178,185.689206 C51.1398771,184.248977 52.228459,182.575965 50.9526565,182.343181 C49.6729937,182.157712 49.0090359,183.597941 49.0090359,183.597941" id="Fill-3" fill="#EBEBEB" mask="url(#mask-2)"></path>
                            <path d="M54.4525526,205.637551 L54.7644908,205.637551 C56.7802312,205.637551 53.8688088,207.882539 55.973935,208.523964 C58.0772371,209.116909 59.4234963,206.78242 59.4234963,206.78242 C59.4234963,206.78242 59.6022678,207.058382 62.154323,205.637551 C64.6644215,204.218584 65.7826558,201.244535 66.5871278,203.166945 C67.3952482,205.134107 64.9781838,204.723893 64.1682392,206.965152 C63.3637672,209.208275 64.348835,209.437622 62.7380668,209.528988 C61.1236502,209.620353 59.5110579,207.882539 59.018524,210.261778 C58.4822094,212.596268 56.5558547,213.603156 55.1676388,217.722075 C53.7356422,221.798107 53.4200557,223.125708 51.8111117,224.089711 C50.1966952,225.003368 48.8978651,226.42047 49.7917229,227.567204 C50.7330098,228.665458 51.5411302,230.815351 50.8242198,232.144817 C50.1073094,233.470553 51.721726,235.760291 52.6155837,236.036253 C53.5568707,236.355101 54.5419384,235.62231 55.6619969,236.584448 C56.7802312,237.498106 55.973935,234.432691 57.6759132,235.350078 C59.4234963,236.263736 58.7977959,237.363854 60.0966259,237.272488 C61.4374126,237.179258 61.5286225,238.186146 62.8274526,236.584448 C64.1682392,234.936135 62.4224803,234.201479 63.7669153,231.548142 C65.0657454,228.894805 65.1569554,231.229294 66.497742,226.832549 C67.796572,222.439533 65.7826558,221.798107 66.3627512,218.458595 C66.9921001,215.068738 67.4828097,215.342835 70.4398371,214.153215 C73.3512595,212.91698 74.1593799,212.504902 75.5001666,210.125662 C76.7989966,207.789308 77.3827405,207.058382 79.2178852,204.723893 C81.0548541,202.342789 84.995125,198.177255 86.6989274,193.642528 C88.4465105,189.158146 88.2203097,188.654702 86.6058932,187.601199 C84.995125,186.59431 82.5762365,186.778907 84.5901527,184.444418 C86.6058932,182.061449 84.6795385,179.316746 86.6058932,179.637458 C88.5358963,179.909691 87.5946093,182.29266 88.4465105,183.711627 C89.2509825,185.128729 89.8292537,186.687541 90.6391983,184.444418 C91.4436703,182.201294 92.6531146,180.735712 92.9650527,178.492589 C93.2806392,176.249466 94.5794692,173.275416 91.4436703,173.776996 C88.3078713,174.28044 86.2939551,177.895915 84.4588104,175.425309 C82.6656222,172.954704 84.5901527,170.528849 82.9812088,168.878671 C81.3667922,167.230357 80.8304775,164.759752 78.8129129,166.726913 C76.7989966,168.649324 78.502799,169.154633 78.2309932,170.528849 C77.9190551,171.854585 76.5746201,170.114906 77.3827405,173.456283 C78.2309932,176.844276 78.8129129,175.332079 78.8129129,179.497613 C78.8129129,183.711627 77.9190551,182.611508 78.9041229,184.535783 C79.9347956,186.502945 83.9644523,186.502945 81.3667922,188.654702 C78.7253513,190.759844 78.8129129,191.904714 75.9945246,192.227291 C73.1706638,192.548003 73.0374972,193.32368 70.932371,194.149702 C68.829069,194.971994 65.9614273,195.063359 64.348835,196.208229 C62.7380668,197.353098 60.2279683,199.275509 58.3928236,198.039274 C57.7652989,199.139392 56.8258362,200.191031 55.3044538,200.694475 C53.4674849,201.334036 53.5094415,201.563383 53.825028,202.663501 C53.9581946,203.166945 54.1369661,203.808371 54.3157377,204.630663 C54.3613427,205.044606 54.4069476,205.363453 54.4525526,205.637551" id="Fill-13" fill="#EBEBEB" mask="url(#mask-2)"></path>
                            <path d="M26.8948886,241.283076 C27.2581348,241.283076 27.5787551,241.283076 27.8993755,241.240018 C31.1278188,241.191344 33.2665234,241.146413 33.7205812,245.83601 C33.8095394,246.567999 33.8095394,247.077208 33.8577251,247.535871 C33.95039,248.683465 33.95039,248.178 36.1780529,248.041337 C37.3586031,247.951476 37.9535114,247.902802 38.819001,248.5 C38.7708153,246.891871 36.815587,242.664682 38.7281895,238.755749 C40.7742293,234.530432 40.2738391,233.699222 41.7731563,229.194963 C43.3225126,224.694448 40.2738391,222.807377 42.912934,221.197376 C45.5965079,219.544316 49.191904,214.719929 50.9191767,211.823799 C51.9662895,210.122065 52.3777214,208.467134 52.9652165,207.36447 C52.9652165,206.857133 52.9225907,206.261807 52.7391143,205.436213 C52.6019703,204.698608 52.4203472,204.10141 52.2850565,203.595944 C51.6493757,201.390617 51.5103784,200.836477 54.8314865,199.735686 C56.0175966,199.365011 56.744089,198.447685 57.2,197.528486 C56.4716543,196.839556 55.9694108,196.425823 53.5137924,196.517556 C50.0110612,196.609288 44.4585836,195.551555 44.2769605,192.885692 C44.0508583,190.221702 46.4175185,187.142107 43.1408895,188.059433 C39.8179281,188.978631 39.4064962,192.288494 38.9079593,189.622632 C38.4075691,186.95677 42.4106905,183.830372 40.6815644,181.490254 C38.9079593,179.14452 41.0911431,177.489588 38.1814669,178.315182 C35.3125632,179.14452 35.7239952,180.889312 33.4963322,183.051581 C31.2186303,185.211978 31.6300622,183.970779 28.9427817,183.740511 C26.2592077,183.555174 26.8948886,185.393571 25.2584274,183.830372 C24.9859927,183.601976 24.7135581,183.326779 24.4411234,183.004778 C23.5293013,183.141441 22.6174793,183.601976 21.529594,185.440373 C20.8438741,186.636641 20.5232537,187.55584 20.2526724,188.289701 C19.7059498,189.944632 19.389036,190.863831 16.9760434,191.646366 C15.3395822,192.196762 14.3406552,191.921564 13.4269798,191.646366 C12.6560083,191.461029 12.0166208,191.277563 10.7434058,192.151831 C9.65181392,192.932495 8.96794736,193.299425 8.51388961,193.529693 C8.05983186,193.759961 8.05983186,193.806763 7.83187634,194.677287 C7.78554391,195.047961 8.24330826,195.69009 8.697366,196.425823 C10.0169134,198.402755 11.5180839,200.699814 8.15064341,203.090479 C7.64839994,203.410607 7.05719822,203.826212 6.51047563,204.193142 C3.41732305,206.353539 1.41761566,207.778203 1.18780684,209.710205 C1.09699529,210.490868 0.870893062,211.132996 0.64293754,211.775125 C0.00540339527,213.431928 -0.676609876,215.362057 1.37128323,220.967108 C1.87167341,222.393644 2.46287513,223.634843 3.05407685,224.694448 C3.5081346,223.863238 3.96589894,223.129377 4.51076824,222.623912 C7.33148617,220.004852 8.19512254,220.967108 9.47204412,222.346842 C9.74262547,222.623912 10.0595392,222.992714 10.7915915,222.900982 C11.9258093,222.758702 12.4261994,222.026713 12.8802572,221.382713 C13.6994144,220.188317 14.4296134,219.132456 16.3403626,219.224188 C17.978677,219.315921 19.389036,220.371782 20.5714394,221.890051 C21.6185522,223.176179 22.4840419,224.784308 23.3031991,226.345635 C25.4845296,230.574696 26.804077,231.035232 26.0775846,236.964154 C25.8959615,238.617214 25.4400505,240.04375 26.8948886,241.283076" id="Fill-15" fill="#EBEBEB" mask="url(#mask-2)"></path>
                        </g>
                    </g>
                </g>
            </g>
        </g>
    </g>
</svg>