<?xml version="1.0" encoding="UTF-8"?>
<svg width="215px" height="241px" viewBox="0 0 215 241" version="1.1" xmlns="http://www.w3.org/2000/svg" xmlns:xlink="http://www.w3.org/1999/xlink">
    <!-- Generator: Sketch 57.1 (83088) - https://sketch.com -->
    <title>Quebec</title>
    <desc>Created with Sketch.</desc>
    <defs>
        <polygon id="path-1" points="0 0 214 0 214 325 0 325"></polygon>
    </defs>
    <g id="Page-2" stroke="none" stroke-width="1" fill="none" fill-rule="evenodd">
        <g id="Artboard-Copy-3" transform="translate(-641.000000, -2657.000000)">
            <g id="Group-8" transform="translate(230.000000, 2357.000000)">
                <g id="Group-11" transform="translate(0.000000, 274.000000)">
                    <g id="编组">
                        <g id="Quebec" transform="translate(411.349354, 1.174877)">
                            <mask id="mask-2" fill="white">
                                <use xlink:href="#path-1"></use>
                            </mask>
                            <g id="Clip-26"></g>
                            <path d="M35.4712813,175.030845 C35.4712813,175.030845 33.0959451,177.410019 33.9175319,177.913055 C34.7391188,178.416091 34.5565439,178.095638 36.1102933,177.821763 C37.6193304,177.50131 39.3128054,176.450524 37.9416309,175.260005 C36.6133056,174.024773 35.4712813,175.030845 35.4712813,175.030845 M18.0446971,115.706128 C17.4951096,115.888712 13.8827355,117.032653 14.4323231,119.044797 C14.9371985,121.103519 16.4909478,120.188738 17.0852476,120.691774 C17.7261226,121.19481 16.0792229,122.748633 16.0792229,123.894437 C16.0792229,124.991801 15.7587854,126.407754 16.9939602,126.547486 C18.229135,126.636915 17.8155471,125.083093 20.3771841,124.580057 C22.9853964,124.075157 24.4031461,123.16224 23.3058339,121.742561 C22.1638096,120.28003 23.5796962,121.103519 23.8069833,118.770922 C23.9895582,116.391748 22.9853964,114.88264 21.5229345,114.88264 C20.1033218,114.88264 18.0446971,115.706128 18.0446971,115.706128 M11.5036733,112.093584 C11.5036733,112.093584 11.0938114,114.746634 12.9698612,114.241734 C14.8440481,113.738698 15.25391,110.994357 14.20131,110.765197 C13.1524361,110.582613 11.5036733,112.093584 11.5036733,112.093584 M10.3597859,102.576888 C10.1772111,103.217793 10.8180861,105.459098 12.0532609,104.134436 C13.2884357,102.806049 13.4710106,100.933637 12.6475607,100.933637 C11.8259738,100.933637 10.3597859,102.576888 10.3597859,102.576888 M72.8413743,32.6884147 C73.3425237,33.4653259 73.7076734,35.0657257 73.2493733,35.6600535 C72.7929361,36.3009587 72.3830742,38.6782697 73.1599488,38.6782697 C73.9386865,38.6782697 77.644211,36.8934233 76.6828984,34.2422371 C75.6731477,31.5891878 74.7602734,30.4899609 74.1193984,30.7191218 C73.5250986,30.9035683 72.8413743,32.6884147 72.8413743,32.6884147 M172.367029,150.879526 C172.367029,150.879526 172.275742,147.313559 175.794965,147.313559 C179.319778,147.313559 180.964815,146.901815 182.52229,146.579499 C184.076039,146.262773 185.585077,145.985171 188.191426,145.664719 C190.753063,145.344266 191.57465,144.751801 194.5033,145.254838 C197.387237,145.757874 199.764436,146.078326 199.123561,147.313559 C198.529262,148.546929 198.618686,147.997315 194.916888,149.370418 C191.164788,150.696942 190.434488,152.207913 186.637677,152.299205 C182.796152,152.435211 183.435164,153.2587 181.972703,152.435211 C180.554953,151.611723 177.261153,150.287061 176.301704,151.199978 C175.386967,152.116622 172.184454,153.349991 171.679579,152.619658 C171.131854,151.887461 172.367029,150.788234 172.367029,150.879526 M147.805122,224.982323 C146.935096,223.605495 146.068797,221.96038 145.381347,220.039528 C143.093572,213.911804 143.915159,211.715213 144.651048,209.792498 C144.83176,209.24661 145.059047,208.696997 145.107485,208.100806 C145.426059,205.496197 147.669122,203.940512 151.145496,201.561338 C151.601933,201.194308 152.151521,200.873855 152.745821,200.417396 L152.790533,200.417396 C154.940445,198.908288 153.843133,197.307889 152.930259,195.93665 C152.242808,194.928714 151.646646,194.013934 151.829221,193.005999 C152.151521,191.405599 152.242808,191.362748 153.340121,190.813134 C153.70527,190.583974 154.344282,190.263521 155.354033,189.577901 C157.22822,188.251377 158.234245,188.525252 159.420981,188.845705 C160.106569,189.028288 160.838731,189.257449 162.073906,188.845705 C163.722669,188.296091 163.949956,187.655186 164.363544,186.511245 C164.637406,185.689619 165.002556,184.683547 165.77943,183.357022 C166.925181,181.389593 167.974055,180.612681 169.026655,180.336943 C168.661505,179.513455 169.026655,178.874413 170.857992,178.874413 C174.241216,178.874413 176.43584,180.795265 177.762303,177.549751 C179.137203,174.253933 180.873527,174.481231 182.108702,171.006556 C183.343877,167.531881 183.161302,167.392149 182.930289,165.655743 C182.749577,163.917474 182.930289,161.355717 181.37654,162.589087 C179.819064,163.82432 178.084603,164.237927 178.587616,163.093986 C179.137203,161.996622 180.372378,160.759526 178.587616,160.759526 C176.849428,160.759526 171.588292,160.440936 166.925181,164.237927 C162.304919,168.033054 154.847295,175.168714 153.70527,177.63918 C152.561383,180.109645 145.243484,188.480538 143.18486,196.070792 C141.126235,203.620059 140.900811,206.088662 140.487223,209.658355 C140.075498,213.270899 138.655885,213.270899 137.698299,215.283043 C136.781699,217.341764 135.641537,221.321338 134.723074,219.169462 C133.808337,217.021312 135.453373,215.100459 135.958249,211.120885 C136.463124,207.096597 134.631786,205.084453 136.781699,203.620059 C138.929748,202.202243 140.075498,203.023868 140.075498,199.320033 C140.075498,195.659048 137.832436,195.43175 139.572486,193.2836 C141.310673,191.133587 142.040972,188.981711 141.539823,185.827488 C141.034948,182.671403 140.578511,183.586183 142.36141,179.789193 C144.099597,175.992202 143.915159,174.481231 147.300246,172.927409 C150.731908,171.418301 153.70527,170.777395 153.112834,168.53609 C152.470096,166.294785 150.458046,161.950045 151.695084,159.250418 C152.930259,156.597369 155.305595,155.591296 157.272932,154.17348 C159.238406,152.710949 154.804446,151.611723 161.801907,149.554864 C168.84408,147.496143 170.079255,146.579499 170.72013,146.169618 C171.314429,145.757874 172.868179,143.928313 173.784779,143.287408 C174.744228,142.69308 175.157816,143.928313 177.078578,142.281336 C179.045916,140.636221 176.664991,138.394916 179.684928,138.394916 C182.656427,138.394916 185.585077,136.654784 186.911539,136.060457 C188.238001,135.419552 189.292464,134.733932 192.170813,134.825224 C195.051024,134.916515 195.373325,134.003598 195.693762,132.766502 C196.012337,131.531269 199.078849,131.030096 201.959061,126.407754 C204.887711,121.833852 203.743823,120.371322 205.295709,117.217099 C206.853185,114.057288 202.920373,109.941708 205.709297,106.558325 C208.498222,103.217793 209.003097,104.408312 209.826547,102.576888 C210.648134,100.74919 206.944472,100.428738 210.968571,98.1874326 C212.296896,97.4105214 213.209771,96.9521996 213.850646,96.5851697 C212.479471,94.2525729 210.696572,91.6013867 209.276959,90.4127312 C207.950497,89.2669269 201.685198,94.9400555 196.105487,100.01513 C192.766975,103.035209 189.657614,105.826128 187.690276,107.061361 C186.864964,107.564397 185.585077,108.341308 184.165464,109.162934 C178.21874,112.686049 169.622817,117.76485 166.833893,121.012227 C163.676093,124.673211 162.120481,123.253532 160.795882,122.063013 C160.520156,121.789138 160.199719,121.5134 160.017144,121.470549 C158.189532,120.963786 158.323669,119.363387 158.508107,116.529617 C158.554682,116.117873 158.599394,115.614837 158.64597,115.156515 L158.64597,115.020509 C158.690682,114.334889 158.737257,113.693984 158.690682,113.144371 C158.64597,111.49553 157.91567,110.491321 154.252995,110.62919 C153.431408,110.673905 153.112834,111.452679 153.155683,112.643198 C153.24697,115.247807 154.847295,119.409964 156.17562,122.977794 C157.22822,125.723998 158.142957,128.147886 158.142957,129.338405 C158.142957,131.350549 157.455507,132.12746 156.08247,132.12746 C155.031733,132.12746 153.520832,131.395263 151.464071,130.433905 L150.594046,130.022161 C148.535421,129.017952 147.669122,129.24525 147.072959,129.427833 C146.160085,129.655131 145.563922,129.794863 144.421898,128.649059 C143.18486,127.460404 141.265961,128.283892 139.617198,129.017952 C139.298623,129.153958 138.929748,129.289964 138.655885,129.427833 C136.688548,130.204745 135.410524,128.33047 134.03935,126.318325 C133.487899,125.448259 132.848887,124.580057 132.208012,123.939151 C131.613712,123.344824 130.928125,123.206954 130.149387,123.024371 C128.4112,122.659204 126.401014,122.202745 124.251102,118.221308 C122.101189,114.286449 119.949414,112.96365 117.801365,111.635263 C116.933203,111.132227 116.063178,110.582613 115.150304,109.852279 C114.280279,109.162934 113.639404,108.525755 113.17924,107.929564 C112.631516,107.150789 112.312941,106.373878 112.312941,105.641681 C112.266366,104.866633 112.540228,104.134436 113.045104,103.495394 C113.363678,103.126501 113.730691,102.806049 114.142416,102.485596 C115.467015,101.526101 114.688278,100.01513 113.548116,97.86698 C113.270528,97.3192296 112.953816,96.7230388 112.678091,96.0821336 C112.404229,95.5790976 112.357654,95.1692164 112.404229,94.8487638 C112.495516,94.0699895 112.996666,93.7048226 113.866691,93.6135309 C114.371566,93.5669534 115.101865,93.7048226 115.880603,93.887406 C118.395665,94.5730255 122.145902,96.3578719 123.885952,97.3192296 C125.026113,98.002986 126.352575,97.7738252 127.8169,96.9521996 C129.512238,96.0821336 131.384562,94.5283112 133.487899,92.6987505 C136.325261,90.3177133 137.925586,89.9544095 139.389911,89.6339569 C140.213361,89.4513734 140.94366,89.3135043 141.858398,88.7638909 C143.458722,87.7596819 142.774998,85.1960612 142.270122,83.4596553 C142.089411,82.8634645 141.949685,82.3157141 141.904973,81.9486841 C141.858398,81.4475112 141.081523,80.6221595 140.213361,79.6626648 C138.83846,78.1964079 137.284711,76.5047164 137.146848,74.7217331 C137.102136,74.1292685 135.775674,74.1721197 133.992774,74.2652745 C131.794424,74.3565662 129.052075,74.4925723 126.628301,73.3039167 C122.967489,71.474356 123.198502,68.2288421 123.381076,65.2534771 C123.425789,64.1561133 123.517076,63.1500412 123.332638,62.3265526 C123.060639,60.9087362 122.604202,59.764795 121.963327,58.7121455 C121.367164,57.7060735 120.543714,56.7912931 119.448265,55.7852211 C118.486952,54.9170181 117.207065,54.5052738 116.10789,54.0935295 C114.645428,53.5886304 113.363678,53.1321718 112.678091,51.8969388 C112.081928,50.8461524 112.404229,48.9718774 112.769378,47.0025845 C113.136391,44.9904404 113.548116,42.8870045 112.905378,41.9275099 C112.588667,41.4226107 111.856504,41.7449264 111.077766,42.2479624 C110.574754,42.5199745 110.025167,42.9335819 109.568729,43.3453262 C108.698704,43.9843683 107.966542,44.5339818 107.372242,44.5339818 C107.053668,44.5339818 106.64008,44.3979757 106.228355,44.1203744 C105.634055,43.7570706 104.948468,43.069588 104.445455,42.2479624 C103.895868,41.3778964 103.486006,40.3718243 103.486006,39.2744606 C103.486006,38.4491088 103.713293,37.6256202 104.261017,36.8039947 C104.76403,36.0252204 104.39888,35.5221844 103.622005,34.9725709 L103.577293,34.9725709 C103.072418,34.6521183 102.431543,34.2888145 101.703106,33.9217845 C100.145631,33.0982959 98.2267319,32.1388013 96.7158318,30.5831157 C96.3022439,30.1695083 95.8905189,29.6664723 95.5235062,29.0740076 C94.9329324,29.8974963 93.4667445,30.1695083 94.3814818,32.6884147 C95.5235062,35.8426369 95.9370942,34.5161123 95.7545193,36.984715 C95.5235062,39.4551809 95.6166566,37.718775 96.9896941,39.96008 C98.3161564,42.1995219 97.5839939,43.2503083 97.9975819,45.1748869 C98.4074438,47.1404537 99.9611931,47.3230371 98.8191687,48.055234 C97.6752813,48.7427166 95.5235062,47.552198 95.2067947,49.793503 C94.9329324,52.034808 95.9370942,52.537844 94.9329324,54.6878573 C93.8803325,56.8378705 93.789045,57.4787757 93.0568826,59.0810386 C90.9963949,63.744369 83.8629343,54.7344347 77.7783476,56.7465788 C75.307998,57.5700674 74.4864111,57.3409066 74.4864111,59.8113724 C74.4864111,62.2799752 74.9894235,64.5231433 73.3425237,62.8761661 C71.6956239,61.2273257 70.004012,63.377339 70.231299,61.6409331 C70.4604491,59.9026642 71.6956239,60.3144085 72.2899237,59.2151816 C72.9307988,58.0731035 75.4011484,57.0670314 74.3504114,55.6939293 C73.3425237,54.3674047 74.0728231,53.6817852 73.0239492,52.7670049 C71.9713492,51.8056471 68.9048368,53.9575235 68.9048368,51.0268728 C68.9048368,48.055234 67.3510875,46.9112928 65.979913,44.3495352 C64.6534508,41.7877776 67.5336623,41.2866047 65.4750376,39.6377644 C63.4182759,37.9926502 61.0392137,37.718775 63.004688,36.1630895 C64.9720253,34.6521183 64.8807378,31.5891878 63.645563,31.863063 C62.365676,32.1816525 60.5380644,31.5891878 60.3070513,33.6013319 C60.1244764,35.6600535 60.2157638,37.3964594 58.753302,35.7513452 C57.3355523,34.104368 56.5102394,33.9217845 54.725477,34.2422371 C47.1821544,35.5687618 40.0468308,26.9687087 36.3841556,26.6482561 C32.6357819,26.3296666 33.4610948,25.8247675 30.8975947,25.3235945 C28.2912454,24.8205585 26.4599078,24.5001059 26.5530582,26.2383749 C26.6443457,27.9747807 25.4091708,27.1512921 24.9061585,28.7069776 C24.4031461,30.2160857 24.9061585,31.0395744 23.1679713,31.0395744 C21.3850719,31.0395744 23.6709837,29.8062045 19.0041467,30.9482826 C14.3876109,32.0903607 14.9800477,31.2687352 11.6862482,31.0395744 C8.39431167,30.8569909 7.75343665,32.3679621 6.01897548,32.7778433 C4.23235006,33.1895876 -1.02692372,35.1570175 0.849126122,36.8039947 C2.72331295,38.4043945 3.31574974,42.1995219 5.60538753,43.7570706 C7.84472408,45.2661787 9.81206135,44.3495352 8.4855991,47.552198 C7.15913685,50.7082833 8.30116123,50.4791224 8.57688653,52.7670049 C8.89732404,55.0083099 7.84472408,55.1908933 6.74741191,56.0125188 C5.60538753,56.8378705 3.82062512,59.0810386 5.78609938,58.4829847 C7.75343665,57.8439426 9.53633605,56.4261262 10.2237863,56.8378705 C10.9559487,57.2496149 12.5096981,56.8378705 12.5096981,59.0810386 C12.5096981,61.3651949 11.7775356,62.37313 13.7448729,63.377339 C15.7122102,64.4299885 17.7726979,64.6125719 17.6776844,66.6712935 C17.4038221,72.4357138 10.8180861,87.9869797 19.0041467,88.7638909 C22.2066588,89.0843434 23.8554215,90.8244755 26.1394703,91.9199762 C28.4272451,93.0657805 29.7537073,91.8286845 31.2161692,94.4817338 C38.2620684,107.519683 48.370754,116.391748 33.7796693,129.794863 C30.9888821,132.356621 32.9562194,135.236968 29.1575445,137.15782 C25.3178834,139.127113 23.8554215,138.622214 23.8554215,140.863519 C23.8554215,143.102961 25.224733,144.522641 26.1394703,145.163546 C27.0560706,145.757874 27.2833577,146.901815 28.4272451,147.816595 C29.5711325,148.731375 30.5771572,148.822667 31.3074566,150.287061 C32.2687692,152.116622 32.6357819,156.597369 35.0148441,160.714812 C37.759056,165.426583 42.42403,169.773186 42.5618927,170.410365 C42.7444675,171.464878 44.5273669,171.051271 42.7444675,173.38573 C41.0044173,175.763041 40.2741179,176.450524 40.8218425,178.416091 C41.3267178,180.336943 42.5618927,180.748688 42.9698916,182.716117 C43.3834795,184.63697 44.5273669,187.107436 42.8804672,185.780911 C41.2354304,184.456249 41.0044173,183.03657 39.5438184,182.898701 C38.1242058,182.807409 37.3920433,182.807409 37.4851937,184.042642 C37.6193304,185.277875 37.4851937,185.87034 37.0716058,186.695691 C36.8890309,187.060858 36.7548943,187.563894 36.475443,187.930924 C36.6133056,188.068793 36.7548943,188.202936 36.8443187,188.342669 C37.5764812,189.11958 38.6272181,190.764694 39.6332429,192.54954 C41.0044173,194.975292 42.3793178,197.719633 42.7891797,198.81886 C43.2027677,199.912497 46.4947042,210.800433 49.1923409,220.177397 C51.1596782,227.083896 52.8512901,233.213483 52.9425776,234.130126 C53.0804402,235.17905 53.4455899,236.82789 53.9951775,238.42829 C54.4534777,239.708237 54.9993393,240.988184 55.5973651,241.85825 C56.1916649,242.637025 57.0151148,243.184775 57.9279891,243.779103 C59.2563143,244.602591 60.672201,245.563949 61.9092388,247.391647 C62.0918137,247.622671 62.4122512,248.125707 62.7308257,248.62688 C64.1970136,250.825333 65.2458875,252.425733 66.3897749,252.379156 C67.1685126,252.334441 68.5396871,252.060566 70.0952994,251.784828 C72.1520611,251.419661 74.5329863,251.006054 76.589748,250.825333 C80.2952725,250.503018 81.6683099,251.233351 84.6398089,252.835614 L85.2788209,253.15793 C86.2401335,253.660966 86.9275837,254.070847 87.4287331,254.393163 C88.5297713,255.078782 88.9377702,255.352658 91.1826958,255.535241 C93.0103074,255.719688 94.6106319,256.35873 96.4866817,257.182218 C98.3161564,257.960993 100.467932,258.87391 103.348143,259.559529 C105.770054,260.066292 107.053668,260.15572 108.011254,260.15572 C109.520291,260.247012 110.207741,260.247012 112.130366,261.709543 C113.363678,262.6709 114.280279,264.224723 114.919291,265.825123 C116.704053,265.417104 118.57824,265.050074 120.452427,264.63833 C126.078713,263.449675 131.703137,262.257293 133.854912,261.253084 C135.410524,260.52275 135.684386,259.881845 135.958249,259.239077 C136.416549,258.233005 136.872986,257.228796 138.611173,256.036414 C139.525911,255.443949 140.304648,255.123497 140.94366,254.804907 C141.949685,254.393163 142.545848,254.117425 143.04886,251.373084 C143.505297,249.131779 143.551873,247.02648 143.596585,245.152205 C143.689735,242.681739 143.732584,240.578303 144.511322,238.746879 C144.878335,237.969968 145.243484,236.049116 145.657072,233.809674 C146.204797,230.927463 146.843809,227.586932 147.805122,224.982323" id="Fill-17" fill="#EBEBEB" mask="url(#mask-2)"></path>
                        </g>
                    </g>
                </g>
            </g>
        </g>
    </g>
</svg>