<?xml version="1.0" encoding="UTF-8"?>
<svg width="81px" height="149px" viewBox="0 0 81 149" version="1.1" xmlns="http://www.w3.org/2000/svg" xmlns:xlink="http://www.w3.org/1999/xlink">
    <!-- Generator: Sketch 57.1 (83088) - https://sketch.com -->
    <title>Saskatchewan</title>
    <desc>Created with Sketch.</desc>
    <defs>
        <polygon id="path-1" points="0 0 81 0 81 325 0 325"></polygon>
    </defs>
    <g id="Page-2" stroke="none" stroke-width="1" fill="none" fill-rule="evenodd">
        <g id="Artboard-Copy-3" transform="translate(-407.000000, -2715.000000)">
            <g id="Group-8" transform="translate(230.000000, 2357.000000)">
                <g id="Group-11" transform="translate(0.000000, 274.000000)">
                    <g id="编组">
                        <g id="Saskatchewan" transform="translate(177.349354, 1.174877)">
                            <mask id="mask-2" fill="white">
                                <use xlink:href="#path-1"></use>
                            </mask>
                            <g id="Clip-26"></g>
                            <path d="M75.4864809,231.625123 L79.4095825,121.539053 C79.0899362,121.676737 78.7721482,121.859076 78.4971037,121.99676 C75.3024984,123.64153 78.0845368,130.081063 77.1293145,130.674594 C76.2168357,131.314641 76.1257736,131.815142 75.8061272,133.370603 C75.4864809,134.877688 74.3454177,134.970718 73.3437351,135.608903 C72.2918756,136.202435 71.5633792,136.931789 70.1491299,138.349566 C68.6884203,139.765482 67.1366487,138.851928 66.8616041,138.258397 C66.5456746,137.663005 66.9545246,135.197711 67.2741709,134.055303 C67.5473571,132.961271 69.0080667,133.644111 69.736563,133.964134 C70.4669178,134.284157 71.9722292,133.461772 73.0222304,132.001202 C74.0703731,130.583425 73.5240008,129.167509 73.5240008,128.116271 C73.5240008,127.113408 71.8830256,125.606322 71.3793967,123.228477 C70.8776262,120.899007 78.6810862,114.13945 78.6810862,114.13945 C78.725688,114.092935 79.0899362,114.092935 79.6827687,114.185965 L80.5506457,90.3870411 C63.5777952,89.6111712 45.1906953,87.3244949 25.4339478,83.1251226 L24.3858051,88.9692645 C25.3428858,88.4669028 25.6625322,87.6928935 27.169702,87.3728705 C28.8571374,87.0044718 30.4981127,86.228602 30.7731573,87.5533486 C31.0928036,88.8780952 31.1392639,90.3405261 33.4195319,90.6140342 C35.7016583,90.9340572 35.2444896,90.0651574 37.6641383,90.4316955 C40.0800702,90.7982335 43.6853839,92.0764651 44.3246766,92.852335 C45.0085712,93.5835504 46.924591,94.4059353 42.9550291,93.8124041 C38.9854672,93.172358 39.715822,93.0811887 37.2980317,93.9500885 C34.878383,94.8171277 36.1569685,94.908297 33.3730716,94.634789 C30.5891748,94.3129053 29.9052802,93.4458661 28.3089068,93.7212348 C26.8965158,93.9500885 25.0696996,93.9017129 23.3804057,94.4989652 L0.250645746,224.273895 L1.25232827,224.409719 C26.8481972,228.19976 53.038757,230.393406 75.4864809,231.625123" id="Fill-21" fill="#EBEBEB" mask="url(#mask-2)"></path>
                        </g>
                    </g>
                </g>
            </g>
        </g>
    </g>
</svg>