<?xml version="1.0" encoding="UTF-8"?>
<svg width="11px" height="24px" viewBox="0 0 11 24" version="1.1" xmlns="http://www.w3.org/2000/svg" xmlns:xlink="http://www.w3.org/1999/xlink">
    <!-- Generator: Sketch 57.1 (83088) - https://sketch.com -->
    <title>Group 3</title>
    <desc>Created with Sketch.</desc>
    <defs>
        <polygon id="path-1" points="7 2.000072 17.943856 2.000072 17.943856 25.556816 7 25.556816"></polygon>
    </defs>
    <g id="Symbols" stroke="none" stroke-width="1" fill="none" fill-rule="evenodd">
        <g id="footer_en" transform="translate(-1231.000000, -330.000000)">
            <g id="Group-19" transform="translate(-2.000000, 0.000000)">
                <g id="Group-18" transform="translate(231.000000, 76.000000)">
                    <g id="Group-8" transform="translate(995.000000, 252.000000)">
                        <g id="Group-3" transform="translate(0.000000, 0.440000)">
                            <mask id="mask-2" fill="white">
                                <use xlink:href="#path-1"></use>
                            </mask>
                            <g id="Clip-2"></g>
                            <rect id="Rectangle" x="0" y="0.56" width="26" height="26"></rect>
                            <path d="M9.411136,13.871216 L9.411136,25.260176 C9.411136,25.424336 9.544336,25.556816 9.707776,25.556816 L13.937056,25.556816 C14.101216,25.556816 14.233696,25.424336 14.233696,25.260176 L14.233696,13.685456 L17.300176,13.685456 C17.454256,13.685456 17.583136,13.568096 17.595376,13.414016 L17.890576,9.926336 C17.905696,9.753536 17.768176,9.605216 17.594656,9.605216 L14.233696,9.605216 L14.233696,7.130576 C14.233696,6.550976 14.704576,6.080816 15.284176,6.080816 L17.646496,6.080816 C17.810656,6.080816 17.943856,5.947616 17.943856,5.784176 L17.943856,2.296496 C17.943856,2.133056 17.810656,1.999856 17.646496,1.999856 L13.654096,1.999856 C11.311216,1.999856 9.411136,3.899216 9.411136,6.242816 L9.411136,9.605216 L7.296496,9.605216 C7.133056,9.605216 6.999856,9.737696 6.999856,9.901856 L6.999856,13.389536 C6.999856,13.552976 7.133056,13.685456 7.296496,13.685456 L9.411136,13.685456 L9.411136,13.871216 Z" id="Fill-1" fill="#FFFFFF"></path>
                        </g>
                    </g>
                </g>
            </g>
        </g>
    </g>
</svg>