<?xml version="1.0" encoding="UTF-8"?>
<svg width="25px" height="25px" viewBox="0 0 25 25" version="1.1" xmlns="http://www.w3.org/2000/svg" xmlns:xlink="http://www.w3.org/1999/xlink">
    <!-- Generator: Sketch 57.1 (83088) - https://sketch.com -->
    <title>Group 3</title>
    <desc>Created with Sketch.</desc>
    <defs>
        <polygon id="path-1" points="1.000216 1.00036 25.57216 1.00036 25.57216 25.572232 1.000216 25.572232"></polygon>
    </defs>
    <g id="Symbols" stroke="none" stroke-width="1" fill="none" fill-rule="evenodd">
        <g id="footer_en" transform="translate(-1345.000000, -330.000000)">
            <g id="Group-19" transform="translate(-2.000000, 0.000000)">
                <g id="Group-18" transform="translate(231.000000, 76.000000)">
                    <g id="Group-8" transform="translate(995.000000, 252.000000)">
                        <g id="Group-3" transform="translate(120.000000, 1.000000)">
                            <rect id="Rectangle" x="0" y="0" width="26" height="26"></rect>
                            <mask id="mask-2" fill="white">
                                <use xlink:href="#path-1"></use>
                            </mask>
                            <g id="Clip-2"></g>
                            <path d="M23.254696,18.171352 C23.254696,20.978632 20.978056,23.254552 18.170056,23.254552 L8.401816,23.254552 C5.594536,23.254552 3.318616,20.978632 3.318616,18.171352 L3.318616,8.401672 C3.318616,5.593672 5.594536,3.317752 8.401816,3.317752 L18.170056,3.317752 C20.978056,3.317752 23.254696,5.593672 23.254696,8.401672 L23.254696,18.171352 Z M25.572376,8.401672 C25.572376,4.313512 22.258216,1.000072 18.170056,1.000072 L8.401816,1.000072 C4.313656,1.000072 1.000216,4.313512 1.000216,8.401672 L1.000216,18.171352 C1.000216,22.258792 4.313656,25.572232 8.401816,25.572232 L18.170056,25.572232 C22.258216,25.572232 25.572376,22.258792 25.572376,18.171352 L25.572376,8.401672 Z M13.328056,17.331832 C11.184616,17.331832 9.440056,15.587992 9.440056,13.445272 C9.440056,11.301112 11.184616,9.557992 13.328056,9.557992 C15.470776,9.557992 17.214616,11.301112 17.214616,13.445272 C17.214616,15.587992 15.470776,17.331832 13.328056,17.331832 L13.328056,17.331832 Z M13.328056,7.376392 C9.981496,7.376392 7.259176,10.098712 7.259176,13.445272 C7.259176,16.791112 9.981496,19.512712 13.328056,19.512712 C16.673896,19.512712 19.396216,16.791112 19.396216,13.445272 C19.396216,10.098712 16.673896,7.376392 13.328056,7.376392 L13.328056,7.376392 Z M19.750456,5.524552 C18.951976,5.524552 18.305416,6.171112 18.305416,6.968152 C18.305416,7.766632 18.951976,8.413192 19.750456,8.413192 C20.548216,8.413192 21.195496,7.766632 21.195496,6.968152 C21.195496,6.171112 20.548216,5.524552 19.750456,5.524552 L19.750456,5.524552 Z" id="Fill-1" fill="#FFFFFF" mask="url(#mask-2)"></path>
                        </g>
                    </g>
                </g>
            </g>
        </g>
    </g>
</svg>