<?xml version="1.0" encoding="UTF-8"?>
<svg width="25px" height="25px" viewBox="0 0 25 25" version="1.1" xmlns="http://www.w3.org/2000/svg" xmlns:xlink="http://www.w3.org/1999/xlink">
    <!-- Generator: Sketch 57.1 (83088) - https://sketch.com -->
    <title>Group 7</title>
    <desc>Created with Sketch.</desc>
    <g id="Symbols" stroke="none" stroke-width="1" fill="none" fill-rule="evenodd">
        <g id="footer_en" transform="translate(-1303.000000, -330.000000)">
            <g id="Group-19" transform="translate(-2.000000, 0.000000)">
                <g id="Group-18" transform="translate(231.000000, 76.000000)">
                    <g id="Group-8" transform="translate(995.000000, 252.000000)">
                        <g id="Group-7" transform="translate(77.320000, 0.440000)">
                            <rect id="Rectangle" x="0.68" y="0.56" width="26" height="26"></rect>
                            <rect id="Rectangle" fill="#FFFFFF" x="2" y="2" width="23.688" height="23.688" rx="4.032"></rect>
                            <g id="Group-5" transform="translate(5.528000, 4.520000)" fill="#062236">
                                <path d="M3.98992608,1.99499328 C3.98992608,3.09693888 3.09663648,3.98962368 1.99469088,3.98962368 C0.89335008,3.98962368 6.048e-05,3.09693888 6.048e-05,1.99499328 C6.048e-05,0.89304768 0.89335008,-0.00024192 1.99469088,-0.00024192 C3.09663648,-0.00024192 3.98992608,0.89304768 3.98992608,1.99499328" id="Fill-1"></path>
                                <path d="M0.51885792,16.6251053 L3.69405792,16.6251053 C3.84586272,16.6251053 3.96924192,16.5017261 3.96924192,16.3499213 L3.96924192,5.69092608 C3.96924192,5.53912128 3.84586272,5.41574208 3.69405792,5.41574208 L0.51885792,5.41574208 C0.36705312,5.41574208 0.24367392,5.53912128 0.24367392,5.69092608 L0.24367392,16.3499213 C0.24367392,16.5017261 0.36705312,16.6251053 0.51885792,16.6251053 M17.4066883,10.1972909 L17.4066883,16.3499213 C17.4066883,16.5017261 17.2839139,16.6251053 17.1315043,16.6251053 L13.9550947,16.6251053 C13.8032899,16.6251053 13.6799107,16.5017261 13.6799107,16.3499213 L13.6799107,10.6273037 C13.6799107,9.12195648 13.1416387,8.09379648 11.7923299,8.09379648 C10.7623555,8.09379648 10.1509027,8.78568768 9.88055712,9.45580608 C9.78257952,9.69591168 9.75717792,10.0285517 9.75717792,10.3642157 L9.75717792,16.3493165 C9.75717792,16.5017261 9.63379872,16.6251053 9.48199392,16.6251053 L6.30618912,16.6251053 C6.15377952,16.6251053 6.03040032,16.5017261 6.03100291,16.3493165 C6.03826272,14.8258253 6.07092192,7.43214528 6.03765792,5.69455488 C6.03523872,5.54033088 6.15922272,5.41574208 6.31284192,5.41574208 L9.48199392,5.41574208 C9.63379872,5.41574208 9.75717792,5.53912128 9.75717792,5.69092608 L9.75717792,7.00394688 C9.74992032,7.01664768 9.73963872,7.02874368 9.73238112,7.04083968 L9.75717792,7.04083968 L9.75717792,7.00394688 C10.2531139,6.24189888 11.1361219,5.15265408 13.1162371,5.15265408 C15.5687011,5.15265408 17.4066883,6.75476928 17.4066883,10.1972909" id="Fill-3"></path>
                            </g>
                        </g>
                    </g>
                </g>
            </g>
        </g>
    </g>
</svg>